<svg id="visual" viewBox="0 0 960 540" width="960" height="540" xmlns="http://www.w3.org/2000/svg" xmlns:xlink="http://www.w3.org/1999/xlink" version="1.1"><rect x="0" y="0" width="960" height="540" fill="#ffffff"></rect><defs><linearGradient id="grad1_0" x1="43.8%" y1="100%" x2="100%" y2="0%"><stop offset="14.444444444444446%" stop-color="#ffffff" stop-opacity="1"></stop><stop offset="85.55555555555554%" stop-color="#ffffff" stop-opacity="1"></stop></linearGradient></defs><defs><linearGradient id="grad2_0" x1="0%" y1="100%" x2="56.3%" y2="0%"><stop offset="14.444444444444446%" stop-color="#ffffff" stop-opacity="1"></stop><stop offset="85.55555555555554%" stop-color="#ffffff" stop-opacity="1"></stop></linearGradient></defs><g transform="translate(960, 540)"><path d="M-243 0C-235.6 -23.4 -228.2 -46.8 -222.5 -72.3C-216.9 -97.8 -212.9 -125.3 -196.6 -142.8C-180.3 -160.3 -151.7 -167.8 -128.7 -177.2C-105.8 -186.6 -88.5 -197.9 -68 -209.2C-47.5 -220.5 -23.7 -231.8 0 -243L0 0Z" fill="#FBAE3C"></path></g><g transform="translate(0, 0)"><path d="M243 0C233.2 22.6 223.3 45.3 217.8 70.8C212.3 96.3 211.1 124.7 196.6 142.8C182.1 161 154.3 168.9 132.3 182C110.2 195.1 94 213.4 72.9 224.4C51.9 235.5 25.9 239.2 0 243L0 0Z" fill="#FBAE3C"></path></g></svg>