<svg width="651" height="441" viewBox="0 0 651 441" fill="none" xmlns="http://www.w3.org/2000/svg">
<path d="M288.528 74.7C288.53 75.2661 288.364 75.82 288.051 76.2916C287.738 76.7633 287.292 77.1314 286.77 77.3494C286.247 77.5674 285.672 77.6255 285.117 77.5162C284.561 77.407 284.051 77.1354 283.65 76.7358C283.249 76.3363 282.975 75.8267 282.864 75.2716C282.753 74.7166 282.809 74.141 283.025 73.6178C283.241 73.0946 283.608 72.6474 284.078 72.3327C284.549 72.018 285.102 71.85 285.668 71.85C286.425 71.85 287.151 72.1499 287.687 72.6841C288.223 73.2183 288.526 73.9432 288.528 74.7Z" fill="#DDDDDD"/>
<path d="M301.778 74.7H357.298" stroke="#DDDDDD" stroke-width="2" stroke-linecap="round" stroke-linejoin="round"/>
<path d="M288.528 87.93C288.528 88.4956 288.361 89.0486 288.046 89.5189C287.732 89.9892 287.285 90.3558 286.763 90.5723C286.24 90.7887 285.665 90.8454 285.11 90.735C284.556 90.6247 284.046 90.3523 283.646 89.9523C283.246 89.5523 282.974 89.0427 282.863 88.4879C282.753 87.9331 282.81 87.3581 283.026 86.8355C283.243 86.3129 283.609 85.8662 284.079 85.552C284.55 85.2377 285.103 85.07 285.668 85.07C286.044 85.0686 286.417 85.1417 286.764 85.285C287.112 85.4282 287.428 85.6389 287.694 85.9047C287.959 86.1705 288.17 86.4863 288.313 86.8339C288.457 87.1815 288.53 87.554 288.528 87.93Z" fill="#DDDDDD"/>
<path d="M301.778 87.93H323.178" stroke="#DDDDDD" stroke-width="2" stroke-linecap="round" stroke-linejoin="round"/>
<path d="M124.408 74.7C124.41 75.2661 124.244 75.82 123.931 76.2916C123.618 76.7633 123.172 77.1314 122.65 77.3494C122.127 77.5674 121.552 77.6255 120.997 77.5162C120.441 77.407 119.931 77.1354 119.53 76.7358C119.129 76.3363 118.855 75.8267 118.744 75.2716C118.633 74.7166 118.689 74.141 118.905 73.6178C119.121 73.0946 119.488 72.6474 119.958 72.3327C120.429 72.018 120.982 71.85 121.548 71.85C122.305 71.85 123.031 72.1499 123.567 72.6841C124.103 73.2183 124.406 73.9432 124.408 74.7Z" fill="#DDDDDD"/>
<path d="M137.668 74.7H211.638" stroke="#DDDDDD" stroke-width="2" stroke-linecap="round" stroke-linejoin="round"/>
<path d="M121.548 90.79C123.128 90.79 124.408 89.5095 124.408 87.93C124.408 86.3505 123.128 85.07 121.548 85.07C119.969 85.07 118.688 86.3505 118.688 87.93C118.688 89.5095 119.969 90.79 121.548 90.79Z" fill="#DDDDDD"/>
<path d="M137.668 87.93H173.478" stroke="#DDDDDD" stroke-width="2" stroke-linecap="round" stroke-linejoin="round"/>
<path d="M124.408 101.4C124.41 101.966 124.244 102.52 123.931 102.992C123.618 103.463 123.172 103.831 122.65 104.049C122.127 104.267 121.552 104.325 120.997 104.216C120.441 104.107 119.931 103.835 119.53 103.436C119.129 103.036 118.855 102.527 118.744 101.972C118.633 101.417 118.689 100.841 118.905 100.318C119.121 99.7946 119.488 99.3474 119.958 99.0327C120.429 98.718 120.982 98.55 121.548 98.55C122.305 98.55 123.031 98.8499 123.567 99.3841C124.103 99.9183 124.406 100.643 124.408 101.4Z" fill="#DDDDDD"/>
<path d="M137.668 101.4H184.288" stroke="#DDDDDD" stroke-width="2" stroke-linecap="round" stroke-linejoin="round"/>
<path d="M400.228 43.54H277.688V58.53H400.228V43.54Z" stroke="#DDDDDD" stroke-linecap="round" stroke-linejoin="round"/>
<path d="M239.248 43.54H116.708V58.53H239.248V43.54Z" stroke="#DDDDDD" stroke-linecap="round" stroke-linejoin="round"/>
<path d="M562.268 14.86H65.0984V331.86H562.268V14.86Z" stroke="#DDDDDD" stroke-width="2" stroke-linecap="round" stroke-linejoin="round"/>
<path d="M570.538 332.26H56.8184V346.12H570.538V332.26Z" stroke="#DDDDDD" stroke-width="2" stroke-linecap="round" stroke-linejoin="round"/>
<path d="M570.538 1H56.8184V14.86H570.538V1Z" stroke="#DDDDDD" stroke-width="2" stroke-linecap="round" stroke-linejoin="round"/>
<path d="M490.488 60.52C467.258 51.02 455.738 77.65 464.488 94.38C466.548 98.3 466.248 101.49 464.298 106.25C462.348 111.01 462.298 114.41 467.568 116.55C472.838 118.69 475.168 116.25 477.118 111.49C479.068 106.73 481.118 104.25 485.298 102.89C503.278 97.09 513.728 70.02 490.488 60.52Z" fill="#F9F9F9" stroke="#DDDDDD" stroke-linecap="round" stroke-linejoin="round"/>
<path d="M470.178 111.42C468.828 105.75 469.278 101.81 473.338 100.85C477.398 99.89 480.658 97.59 478.878 94.62C477.098 91.65 469.718 90.96 471.738 94.56C473.758 98.16 484.388 96.87 481.898 93.35C479.408 89.83 473.468 86.91 475.898 86.35C478.328 85.79 485.758 89.15 483.358 86.53C478.538 81.28 484.168 80.17 485.718 74.53" stroke="#DDDDDD" stroke-linecap="round" stroke-linejoin="round"/>
<path d="M480.098 109.76C479.277 111.148 478.569 112.599 477.978 114.1C477.534 115.237 476.999 116.338 476.379 117.39C474.159 121.12 471.189 122.61 465.939 120.47C460.689 118.33 459.638 115.18 460.668 110.97C460.958 109.78 461.346 108.616 461.828 107.49C462.45 106.006 462.962 104.479 463.358 102.92C468.471 106.21 474.145 108.529 480.098 109.76Z" fill="#F9F9F9" stroke="#DDDDDD" stroke-linecap="round" stroke-linejoin="round"/>
<path d="M480.098 109.76C479.361 111.001 478.722 112.299 478.188 113.64C478.108 113.79 478.048 113.95 477.978 114.1C477.534 115.238 476.999 116.338 476.378 117.39C474.228 117.87 471.468 117.47 467.788 115.96C464.108 114.45 461.858 112.81 460.668 110.96C460.958 109.77 461.346 108.606 461.828 107.48L462.008 107.01C462.555 105.677 463.006 104.307 463.358 102.91C468.47 106.203 474.145 108.526 480.098 109.76Z" fill="#F9F9F9" stroke="#DDDDDD" stroke-linecap="round" stroke-linejoin="round"/>
<path d="M480.098 109.76C479.361 111.001 478.722 112.299 478.188 113.64C472.402 112.551 466.898 110.299 462.008 107.02C462.555 105.687 463.006 104.317 463.358 102.92C468.47 106.21 474.145 108.529 480.098 109.76Z" fill="#F9F9F9" stroke="#DDDDDD" stroke-linecap="round" stroke-linejoin="round"/>
<path d="M494.438 54.29L498.828 43.54" stroke="#DDDDDD" stroke-width="2" stroke-linecap="round" stroke-linejoin="round"/>
<path d="M511.498 70.79L522.068 69.27" stroke="#DDDDDD" stroke-width="2" stroke-linecap="round" stroke-linejoin="round"/>
<path d="M464.458 56.14L455.008 46.01" stroke="#DDDDDD" stroke-width="2" stroke-linecap="round" stroke-linejoin="round"/>
<path d="M479.568 51.89V44.75" stroke="#DDDDDD" stroke-linecap="round" stroke-linejoin="round"/>
<path d="M454.978 73.17L447.048 74.31" stroke="#DDDDDD" stroke-linecap="round" stroke-linejoin="round"/>
<path d="M507.418 92.94L510.338 97.95" stroke="#DDDDDD" stroke-linecap="round" stroke-linejoin="round"/>
<path d="M505.358 62.44L511.068 59.73" stroke="#DDDDDD" stroke-linecap="round" stroke-linejoin="round"/>
<path d="M105.698 110.06H82.2783C80.2599 118.885 80.8364 128.105 83.9383 136.61L108.488 136.22C108.488 136.22 101.868 121.84 105.698 110.06Z" fill="#DDDDDD" stroke="#DDDDDD" stroke-miterlimit="10"/>
<path d="M100.418 116.68H88.4983" stroke="#F9F9F9" stroke-linecap="round" stroke-linejoin="round"/>
<path d="M99.6584 121.85H90.6484" stroke="#F9F9F9" stroke-linecap="round" stroke-linejoin="round"/>
<path d="M100.238 126.78H87.7483" stroke="#F9F9F9" stroke-linecap="round" stroke-linejoin="round"/>
<path d="M87.8984 70.94H110.438C112.199 78.85 110.791 87.1347 106.518 94.02L82.1284 93.02C82.1284 93.02 89.5684 82.34 87.8984 70.94Z" stroke="#DDDDDD" stroke-linecap="round" stroke-linejoin="round"/>
<path d="M92.0183 76.33H106.738" stroke="#DDDDDD" stroke-linecap="round" stroke-linejoin="round"/>
<path d="M92.2283 81.27H103.978" stroke="#DDDDDD" stroke-linecap="round" stroke-linejoin="round"/>
<path d="M92.0183 87.73H97.5683" stroke="#DDDDDD" stroke-linecap="round" stroke-linejoin="round"/>
<path d="M98.8284 87.73H102.518" stroke="#DDDDDD" stroke-linecap="round" stroke-linejoin="round"/>
<path d="M143.428 144.9L165.978 144.95C167.748 152.852 166.355 161.132 162.098 168.02L137.718 167.02C137.718 167.02 145.098 156.28 143.428 144.9Z" stroke="#DDDDDD" stroke-linecap="round" stroke-linejoin="round"/>
<path d="M147.548 150.3H162.268" stroke="#DDDDDD" stroke-linecap="round" stroke-linejoin="round"/>
<path d="M147.758 155.23H159.508" stroke="#DDDDDD" stroke-linecap="round" stroke-linejoin="round"/>
<path d="M147.548 161.69H153.098" stroke="#DDDDDD" stroke-linecap="round" stroke-linejoin="round"/>
<path d="M154.358 161.69H158.048" stroke="#DDDDDD" stroke-linecap="round" stroke-linejoin="round"/>
<path d="M331.098 156.46H353.638C355.396 164.367 353.989 172.647 349.718 179.53L325.328 178.53C325.328 178.53 332.758 167.84 331.098 156.46Z" stroke="#DDDDDD" stroke-linecap="round" stroke-linejoin="round"/>
<path d="M335.208 161.86H349.928" stroke="#DDDDDD" stroke-linecap="round" stroke-linejoin="round"/>
<path d="M335.418 166.79H347.168" stroke="#DDDDDD" stroke-linecap="round" stroke-linejoin="round"/>
<path d="M335.208 173.25H340.758" stroke="#DDDDDD" stroke-linecap="round" stroke-linejoin="round"/>
<path d="M342.018 173.25H345.708" stroke="#DDDDDD" stroke-linecap="round" stroke-linejoin="round"/>
<path d="M407.098 68.81L384.558 68.86C382.801 76.7668 384.208 85.0474 388.478 91.93L412.868 90.93C412.868 90.93 405.448 80.19 407.098 68.81Z" stroke="#DDDDDD" stroke-linecap="round" stroke-linejoin="round"/>
<path d="M402.998 74.21H388.278" stroke="#DDDDDD" stroke-linecap="round" stroke-linejoin="round"/>
<path d="M402.788 79.14H391.048" stroke="#DDDDDD" stroke-linecap="round" stroke-linejoin="round"/>
<path d="M402.998 85.6H397.448" stroke="#DDDDDD" stroke-linecap="round" stroke-linejoin="round"/>
<path d="M396.188 85.6H392.498" stroke="#DDDDDD" stroke-linecap="round" stroke-linejoin="round"/>
<path d="M259.088 40.78V276.79" stroke="#DDDDDD" stroke-linecap="round" stroke-linejoin="round"/>
<path d="M376.788 100.24C371.318 84.0401 368.908 78.2401 365.788 74.7301C362.668 71.2201 353.838 67.4901 353.838 67.4901C353.838 67.4901 350.158 53.2301 345.448 53.6901C340.738 54.1501 348.548 73.1201 348.548 73.1201L344.408 91.7401C345.75 93.9253 346.796 96.2792 347.518 98.7401C350.738 109.32 359.568 110.32 361.998 119.2C361.848 118.69 376.738 109.77 376.788 100.24Z" fill="#FEBD9D"/>
<path d="M376.788 100.24C371.318 84.0401 368.908 78.2401 365.788 74.7301C362.668 71.2201 353.838 67.4901 353.838 67.4901C353.838 67.4901 350.158 53.2301 345.448 53.6901C340.738 54.1501 348.548 73.1201 348.548 73.1201L344.408 91.7401C345.75 93.9253 346.796 96.2792 347.518 98.7401C350.738 109.32 359.568 110.32 361.998 119.2C361.848 118.69 376.738 109.77 376.788 100.24Z" fill="#FEBD9D"/>
<path d="M365.798 74.7301C362.698 71.1601 353.848 67.4901 353.848 67.4901C353.848 67.4901 350.168 53.2301 345.458 53.6901C340.748 54.1501 348.558 73.1201 348.558 73.1201L344.418 91.7401" stroke="#F4A789" stroke-width="0.75" stroke-linecap="round" stroke-linejoin="round"/>
<path d="M339.738 84.4501C343.628 81.3701 350.298 92.6501 346.268 95.7301C343.378 97.9401 336.038 87.3401 339.738 84.4501Z" fill="#FEBD9D" stroke="#F4A789" stroke-miterlimit="10"/>
<path d="M353.848 67.4901C350.748 66.2701 350.358 71.4901 353.068 73.4901C355.778 75.4901 357.508 75.9101 357.898 77.1701C358.288 78.4301 359.058 82.3801 359.058 82.3801C358.189 84.8758 357.857 87.5268 358.082 90.1599C358.308 92.7929 359.087 95.3487 360.368 97.6601" stroke="#F4A789" stroke-width="0.75" stroke-linecap="round" stroke-linejoin="round"/>
<path d="M342.648 78.0001C346.538 74.9201 354.778 89.0001 350.748 92.0601C347.868 94.2601 338.948 80.9201 342.648 78.0001Z" fill="#FEBD9D" stroke="#F4A789" stroke-miterlimit="10"/>
<path d="M346.028 73.4401C349.918 70.3601 358.168 84.4401 354.138 87.5001C351.258 89.7001 342.338 76.3401 346.028 73.4401Z" fill="#FEBD9D" stroke="#F4A789" stroke-miterlimit="10"/>
<path d="M362.548 129.46L357.298 119.21C357.298 119.21 370.138 110.42 376.788 100.21L381.198 107.6C381.198 107.6 375.928 130.77 362.548 129.46Z" fill="white"/>
<path d="M439.298 178.86C421.388 153.05 398.448 127.65 395.188 124.1C393.462 122.062 391.037 120.742 388.388 120.4L380.388 106.19C380.388 106.19 371.658 119.19 357.298 126.19L364.558 140.11C364.558 140.11 362.338 141.8 367.218 152.05C372.098 162.3 390.988 201.45 400.538 209.22C423.378 227.8 462.838 212.79 439.298 178.86Z" fill="#A7CAF0"/>
<path d="M376.188 132.17L368.108 119.21" stroke="#83ADDF" stroke-width="0.75" stroke-linecap="round" stroke-linejoin="round"/>
<path d="M371.368 135.39L363.428 122.66" stroke="#83ADDF" stroke-width="0.75" stroke-linecap="round" stroke-linejoin="round"/>
<path d="M376.788 110.78L385.308 124.45" stroke="#83ADDF" stroke-width="0.75" stroke-linecap="round" stroke-linejoin="round"/>
<path d="M372.518 115.09L381.048 128.76" stroke="#83ADDF" stroke-width="0.75" stroke-linecap="round" stroke-linejoin="round"/>
<path d="M439.298 178.86C421.388 153.05 398.448 127.65 395.188 124.1C393.462 122.062 391.037 120.742 388.388 120.4L380.388 106.19" stroke="#83ADDF" stroke-width="0.75" stroke-linecap="round" stroke-linejoin="round"/>
<path d="M606.288 423.42H507.408V345.51L595.838 344.28C602.648 373.01 606.288 423.42 606.288 423.42Z" fill="#683F1D"/>
<path d="M555.548 423.42C555.548 423.42 552.308 392.04 551.978 389.05C551.882 388.259 551.528 387.521 550.972 386.95C550.415 386.379 549.687 386.007 548.898 385.89C547.001 385.5 545.045 385.5 543.148 385.89" stroke="#7F542D" stroke-width="0.75" stroke-linecap="round" stroke-linejoin="round"/>
<path d="M613.408 234.17C611.828 260.26 606.408 300.82 602.658 326.66C600.548 341.21 598.998 351.1 598.998 351.1C598.998 351.1 535.728 353.56 518.538 353.1C501.348 352.64 499.468 351.37 499.468 344.44C499.468 337.51 499.758 250.97 499.758 250.97C499.758 250.97 414.878 220.97 402.658 210.78C390.438 200.59 405.068 167.1 436.488 173.97C444.388 175.7 452.238 177.46 460.258 179.23C484.098 184.52 509.388 189.84 541.098 194.34C575.538 199.26 597.098 199.54 611.818 209.22C613.998 210.65 614.248 220.4 613.408 234.17Z" fill="#A7CAF0"/>
<path d="M590.558 260.4C577.188 268.88 577.158 280.81 582.388 290.05C594.448 311.32 559.388 297.5 557.878 323.88L608.638 311.82L590.558 260.4Z" fill="#83ADDF"/>
<path d="M631.968 242.34C626.17 238.818 619.928 236.084 613.408 234.21C602.618 231.21 592.208 231.84 585.298 238.96C584.063 240.229 582.985 241.643 582.088 243.17C564.778 272.17 516.378 266.88 507.408 236.3C499.778 210.3 488.008 194.14 460.258 179.3C484.098 184.52 509.388 189.84 541.098 194.34C575.538 199.26 597.098 199.54 611.818 209.22C618.638 212.1 625.748 225.28 631.968 242.34Z" fill="#A7CAF0"/>
<path d="M544.328 192.45C533.048 192.45 523.898 199.66 523.898 208.54C523.898 213.54 526.798 218.02 531.358 220.97C533.564 222.391 536.006 223.407 538.568 223.97C540.457 224.408 542.39 224.627 544.328 224.62C544.758 224.62 545.178 224.62 545.598 224.62C548.317 224.502 550.997 223.93 553.528 222.93C555.924 222.018 558.126 220.661 560.018 218.93C561.483 217.631 562.662 216.042 563.481 214.264C564.3 212.486 564.742 210.557 564.778 208.6C564.778 199.66 555.628 192.45 544.328 192.45ZM551.098 216.34C549.101 216.957 547.028 217.294 544.938 217.34H544.328C542.692 217.346 541.059 217.179 539.458 216.84C537.399 216.438 535.424 215.687 533.618 214.62C530.718 212.87 528.918 210.41 528.918 207.69C528.918 202.35 535.818 198.03 544.328 198.03C552.838 198.03 559.748 202.35 559.748 207.69C559.748 210.04 558.408 212.19 556.168 213.87C554.636 214.983 552.92 215.819 551.098 216.34V216.34Z" stroke="#83ADDF" stroke-width="0.75" stroke-linecap="round" stroke-linejoin="round"/>
<path d="M534.168 188.34C530.348 189.07 526.098 190.34 523.968 194C521.838 197.66 521.738 212.91 523.688 214.58C525.638 216.25 528.238 208.27 539.868 204.38L534.168 188.34Z" fill="white"/>
<path d="M549.648 205.1L561.518 186.34C561.518 186.34 567.818 189.68 568.838 195.71C569.858 201.74 567.098 221.51 562.098 216.5C558.548 213 559.348 210.11 549.648 205.1Z" fill="white"/>
<path d="M531.358 220.97L533.618 214.59" stroke="#83ADDF" stroke-width="0.75" stroke-linecap="round" stroke-linejoin="round"/>
<path d="M538.568 223.98L539.458 216.81" stroke="#83ADDF" stroke-width="0.75" stroke-linecap="round" stroke-linejoin="round"/>
<path d="M545.598 224.6L544.938 217.3" stroke="#83ADDF" stroke-width="0.75" stroke-linecap="round" stroke-linejoin="round"/>
<path d="M553.528 222.91L551.098 216.32" stroke="#83ADDF" stroke-width="0.75" stroke-linecap="round" stroke-linejoin="round"/>
<path d="M560.018 218.87L556.168 213.84" stroke="#83ADDF" stroke-width="0.75" stroke-linecap="round" stroke-linejoin="round"/>
<path d="M563.318 188.88C563.408 191.22 558.638 206.6 545.398 207.88C532.158 209.16 530.218 194.74 530.298 190.95C530.298 189.42 530.468 186.72 530.658 183.34C530.918 178.7 531.268 172.79 531.528 166.93L531.588 165.65C533.048 131.65 562.238 138.44 560.418 156.46C559.308 167.57 563.208 186.55 563.318 188.88Z" fill="#FEBD9D"/>
<path d="M530.658 183.34C530.918 178.7 531.268 172.79 531.528 166.93L547.698 164.43C548.288 174.74 543.308 183.61 530.658 183.34Z" fill="#F4A789"/>
<path d="M596.098 309.1C596.098 308.9 595.988 308.7 595.938 308.49C591.408 290.28 587.648 271.23 586.068 254.6" stroke="#83ADDF" stroke-width="0.75" stroke-linecap="round" stroke-linejoin="round"/>
<path d="M522.098 286.24C520.638 279.9 524.458 278.04 527.788 276.9C527.478 275.11 528.138 272.21 532.108 271.59C535.868 271 537.218 274.7 537.218 274.7C537.218 274.7 545.128 272.02 547.128 280.07L522.098 286.24Z" fill="#DDDDDD"/>
<path d="M502.888 288.01L562.638 274.2L585.298 370.21L525.028 382.34L502.888 288.01Z" fill="#F9F9F9" stroke="#DDDDDD" stroke-linecap="round" stroke-linejoin="round"/>
<path d="M530.098 276.46C530.096 276.993 530.252 277.514 530.547 277.957C530.841 278.401 531.26 278.747 531.752 278.952C532.243 279.158 532.784 279.212 533.307 279.11C533.829 279.007 534.31 278.752 534.687 278.376C535.064 278 535.321 277.521 535.426 276.999C535.53 276.476 535.478 275.935 535.274 275.443C535.071 274.951 534.726 274.53 534.284 274.234C533.841 273.938 533.321 273.78 532.788 273.78C532.076 273.78 531.394 274.062 530.89 274.564C530.385 275.067 530.101 275.748 530.098 276.46Z" fill="#F9F9F9" stroke="#DDDDDD" stroke-linecap="round" stroke-linejoin="round"/>
<path d="M650.098 328.67C650.117 330.573 650.031 332.476 649.838 334.37V334.65C649.776 335.035 649.689 335.416 649.578 335.79C647.138 343.79 631.698 351.34 617.358 343.04C616.101 342.311 614.898 341.492 613.758 340.59C609.113 336.755 605.328 331.985 602.648 326.59C599.793 321.034 597.595 315.165 596.098 309.1C596.098 308.9 595.988 308.7 595.938 308.49C589.938 284.21 585.218 258.43 585.258 238.92C585.258 215.4 592.188 200.98 611.818 209.24C618.598 212.1 625.708 225.24 631.928 242.3C637.192 257.083 641.439 272.208 644.638 287.57C648.098 303.54 650.098 318.52 650.098 328.67Z" fill="#A7CAF0"/>
<path d="M649.878 334.4V334.68C649.816 335.065 649.729 335.446 649.618 335.82C647.178 343.82 631.738 351.37 617.398 343.07C616.141 342.341 614.938 341.522 613.798 340.62C618.172 338.362 623.093 337.381 627.998 337.79C654.388 340.17 626.388 311.02 644.708 287.57C648.078 303.57 650.138 318.52 650.168 328.67C650.294 330.585 650.197 332.508 649.878 334.4Z" fill="#83ADDF"/>
<path d="M631.968 242.34C626.17 238.818 619.928 236.084 613.408 234.21C602.618 231.21 592.208 231.84 585.298 238.96C585.298 215.44 592.228 201.02 611.858 209.28C618.638 212.1 625.748 225.28 631.968 242.34Z" fill="#A7CAF0"/>
<path d="M532.168 329.1C530.538 328.1 520.888 322.52 518.088 322.34C515.288 322.16 509.318 326.29 509.318 326.29C509.318 326.29 497.468 326.99 496.158 329.1C494.848 331.21 497.508 334.18 499.548 335.24C501.588 336.3 499.668 338.48 499.928 340.24C500.188 342 502.388 343.24 502.648 344.45C502.908 345.66 501.768 348.96 504.488 349.77C507.208 350.58 505.488 352.25 506.858 354.62C508.228 356.99 516.598 356.55 537.858 352.34L532.168 329.1Z" fill="#FEBD9D"/>
<path d="M518.098 322.34C515.288 322.17 509.328 326.29 509.328 326.29C509.328 326.29 497.478 326.99 496.168 329.1C494.858 331.21 497.518 334.18 499.558 335.24C501.598 336.3 499.678 338.48 499.938 340.24C500.198 342 502.398 343.24 502.658 344.45C502.918 345.66 501.778 348.96 504.498 349.77C507.218 350.58 505.498 352.25 506.868 354.62C507.418 355.55 509.048 356.05 512.108 356.05" stroke="#F4A789" stroke-width="0.75" stroke-linecap="round" stroke-linejoin="round"/>
<path d="M530.678 327.18L534.948 354.5L543.958 353.17L541.158 326.51L530.678 327.18Z" fill="white"/>
<path d="M649.848 334.68C649.768 335.06 649.688 335.45 649.588 335.82C647.208 345.19 637.168 351.25 609.648 353.17C607.248 353.343 604.872 353.497 602.518 353.63C569.878 355.57 541.648 355.01 541.648 355.01L537.398 325.82C552.198 321.43 576.788 313.11 596.138 309.1C604.138 307.45 611.188 306.52 616.338 306.9C622.205 307.218 628.019 308.174 633.678 309.75C635.184 310.184 636.661 310.716 638.098 311.34C644.718 314.34 649.168 319.06 650.008 326.76C650.078 327.4 650.128 328.04 650.178 328.65C650.309 330.666 650.198 332.69 649.848 334.68Z" fill="#A7CAF0"/>
<path d="M616.338 306.9C611.188 306.52 604.108 307.45 596.138 309.1C576.788 313.1 552.198 321.43 537.398 325.82L541.648 355.01" stroke="#83ADDF" stroke-width="0.75" stroke-linecap="round" stroke-linejoin="round"/>
<path d="M537.908 329.28L555.228 326.51" stroke="#83ADDF" stroke-width="0.75" stroke-linecap="round" stroke-linejoin="round"/>
<path d="M538.728 334.89L555.558 332.79" stroke="#83ADDF" stroke-width="0.75" stroke-linecap="round" stroke-linejoin="round"/>
<path d="M539.348 339.2L555.968 337.79" stroke="#83ADDF" stroke-width="0.75" stroke-linecap="round" stroke-linejoin="round"/>
<path d="M540.268 345.52L556.308 344.28" stroke="#83ADDF" stroke-width="0.75" stroke-linecap="round" stroke-linejoin="round"/>
<path d="M541.158 350.67L556.888 349.09" stroke="#83ADDF" stroke-width="0.75" stroke-linecap="round" stroke-linejoin="round"/>
<path d="M509.318 326.34C513.608 325.9 517.468 325.72 517.468 325.72" stroke="#F4A789" stroke-width="0.75" stroke-linecap="round" stroke-linejoin="round"/>
<path d="M649.848 334.68C649.786 335.065 649.699 335.446 649.588 335.82C647.208 345.19 637.168 351.25 609.648 353.17C607.248 353.343 604.872 353.497 602.518 353.63C608.638 338.49 622.228 337.27 627.968 337.79C645.638 339.39 638.968 326.86 638.058 311.36C644.678 314.36 649.128 319.08 649.968 326.78C650.038 327.42 650.088 328.06 650.138 328.67C650.28 330.678 650.183 332.695 649.848 334.68Z" fill="#83ADDF"/>
<path d="M558.508 133.9C557.852 138.75 556.682 143.517 555.018 148.12C552.428 154.86 548.238 160.75 541.408 160.7C540.687 160.691 539.968 160.624 539.258 160.5L521.098 153.05C521.098 153.05 521.178 152.7 521.358 152.05C522.634 147.636 524.501 143.414 526.908 139.5C527.118 139.17 527.348 138.84 527.568 138.5C531.888 131.95 536.208 126.71 536.208 126.71C536.208 126.71 536.458 120.44 541.578 119.52C546.698 118.6 559.928 124.34 558.508 133.9Z" fill="#FEBD9D"/>
<path d="M555.018 148.12C552.428 154.86 548.238 160.75 541.408 160.7C540.173 159.912 539.136 158.85 538.375 157.598C537.615 156.346 537.152 154.936 537.022 153.476C536.892 152.017 537.098 150.547 537.625 149.18C538.152 147.813 538.985 146.585 540.061 145.591C541.137 144.596 542.427 143.862 543.831 143.444C545.235 143.026 546.717 142.936 548.161 143.18C549.606 143.424 550.975 143.997 552.164 144.853C553.353 145.709 554.329 146.827 555.018 148.12Z" fill="#F4A789"/>
<path d="M528.238 143.97C528.238 145.914 527.55 147.795 526.296 149.281C525.043 150.767 523.304 151.762 521.388 152.09C522.664 147.676 524.531 143.454 526.938 139.54C527.789 140.861 528.24 142.399 528.238 143.97Z" fill="#F4A789"/>
<path d="M570.248 135.19C569.428 137.53 566.638 144.74 565.098 148.71C564.468 150.32 564.038 151.4 564.038 151.4L559.618 149.79L556.448 148.64L555.328 148.24C555.328 148.24 555.328 148.71 555.208 149.53C554.889 152.575 554.303 155.587 553.458 158.53C552.458 162.193 550.823 165.652 548.628 168.75C542.628 176.75 527.048 175.93 519.858 169.75C514.858 165.41 515.858 157.47 520.208 149.21C522.271 145.395 524.749 141.82 527.598 138.55C527.598 138.55 524.088 146.78 523.518 148.55C522.828 150.76 525.418 150.55 526.418 148.67C527.418 146.79 529.348 145.49 534.948 146.99C540.548 148.49 542.828 151.39 541.788 155.44C541.178 157.83 545.618 158.66 548.888 155.51C549.168 155.242 549.429 154.955 549.668 154.65C550.117 154.095 550.503 153.491 550.818 152.85C553.818 146.74 555.568 137.39 555.738 133.71C552.388 133.92 549.498 131.37 551.398 128.2C547.468 129.85 544.548 127.03 545.218 123.27C543.518 125.94 539.698 125.77 539.218 122.61L536.218 126.71C535.64 125.157 535.368 123.507 535.418 121.85C535.638 116.85 539.888 115.03 543.248 116.18C543.768 112.57 552.248 111.85 552.868 117.01C554.688 113.65 560.718 114.34 560.868 119.53C561.652 119.104 562.552 118.94 563.435 119.062C564.319 119.185 565.14 119.586 565.78 120.208C566.419 120.831 566.842 121.641 566.987 122.521C567.133 123.402 566.993 124.305 566.588 125.1C569.338 124.5 571.098 128.1 568.728 130.68C568.758 130.73 571.418 131.9 570.248 135.19Z" fill="#BF8228"/>
<path d="M541.098 139.34C541.098 139.605 541.177 139.864 541.324 140.085C541.471 140.305 541.681 140.477 541.925 140.578C542.17 140.68 542.44 140.706 542.7 140.654C542.96 140.603 543.198 140.475 543.386 140.288C543.573 140.1 543.701 139.861 543.752 139.602C543.804 139.342 543.778 139.072 543.676 138.827C543.575 138.582 543.403 138.373 543.183 138.226C542.962 138.079 542.703 138 542.438 138C542.083 138 541.742 138.141 541.491 138.393C541.239 138.644 541.098 138.985 541.098 139.34Z" fill="#683F1D"/>
<path d="M532.528 136.47C532.526 136.736 532.603 136.996 532.75 137.218C532.896 137.44 533.105 137.614 533.351 137.716C533.596 137.819 533.866 137.846 534.127 137.795C534.388 137.743 534.628 137.616 534.816 137.428C535.004 137.24 535.131 137 535.183 136.739C535.234 136.478 535.207 136.208 535.104 135.963C535.002 135.717 534.828 135.508 534.606 135.362C534.384 135.215 534.124 135.138 533.858 135.14C533.506 135.143 533.169 135.284 532.921 135.533C532.672 135.781 532.531 136.118 532.528 136.47Z" fill="#683F1D"/>
<path d="M543.798 132.28C543.108 134.67 550.118 137.03 550.418 135.57C550.638 134.52 544.818 128.74 543.798 132.28Z" fill="#BF8228"/>
<path d="M533.858 129.11C533.448 130.39 539.338 132.6 540.028 130.45C540.848 127.89 534.218 128.01 533.858 129.11Z" fill="#BF8228"/>
<path d="M559.618 149.79L555.328 148.24C555.059 151.735 554.433 155.193 553.458 158.56C552.068 158.77 550.458 158.04 548.888 155.56C549.681 154.792 550.334 153.892 550.818 152.9C553.818 146.79 555.568 137.44 555.738 133.76C552.388 133.97 549.498 131.42 551.398 128.25C547.468 129.9 544.548 127.08 545.218 123.32C543.518 125.99 539.698 125.82 539.218 122.66L536.218 126.76C535.64 125.207 535.368 123.557 535.418 121.9C537.038 120.25 539.258 119.11 541.118 119.68C541.118 119.68 546.008 120.86 547.728 118.52C546.778 122.28 550.618 125.86 555.148 124.32C555.148 124.32 556.728 131.15 562.258 131.14C562.258 131.14 561.658 137.25 564.818 137.81C567.208 138.22 562.378 145.11 559.618 149.79Z" fill="#BF8228"/>
<path d="M555.208 149.53C554.889 152.575 554.303 155.587 553.458 158.53C552.458 162.193 550.823 165.652 548.628 168.75C542.628 176.75 527.048 175.93 519.858 169.75C514.858 165.41 515.858 157.47 520.208 149.21C520.828 163.5 534.408 171.69 548.888 155.56L549.668 154.7C551.367 152.825 553.22 151.095 555.208 149.53Z" fill="#BF8228"/>
<path d="M565.098 148.71C564.468 150.32 564.038 151.4 564.038 151.4L559.618 149.79L556.448 148.64C561.348 145.39 563.838 146.79 565.098 148.71Z" fill="#BF8228"/>
<path d="M553.638 157.89C554.51 154.735 555.076 151.504 555.328 148.24C558.088 145.74 562.928 145.82 565.138 148.6C565.744 149.372 566.128 150.296 566.248 151.27C567.098 157.34 562.028 163.73 553.638 157.89Z" fill="#FEBD9D"/>
<path d="M559.988 160.19C557.681 160.115 555.458 159.31 553.638 157.89" stroke="#F4A789" stroke-width="0.75" stroke-linecap="round" stroke-linejoin="round"/>
<path d="M530.288 142.53C530.728 139.99 532.138 139.99 534.798 139.53C537.458 139.07 539.518 136.7 539.228 134.3" stroke="#F4A789" stroke-width="0.75" stroke-linecap="round" stroke-linejoin="round"/>
<path d="M557.148 152.34C557.578 151.863 558.115 151.494 558.715 151.264C559.314 151.034 559.96 150.949 560.599 151.016C561.238 151.083 561.852 151.301 562.39 151.651C562.929 152.001 563.377 152.474 563.698 153.03" stroke="#F4A789" stroke-width="0.75" stroke-linecap="round" stroke-linejoin="round"/>
<path d="M558.418 151.44C562.958 151.01 562.268 157.83 557.878 156.57" stroke="#F4A789" stroke-width="0.75" stroke-linecap="round" stroke-linejoin="round"/>
<path d="M517.468 166.56C521.748 163.69 527.468 165.14 532.078 169.26C538.208 174.74 548.228 169.26 548.228 169.26" stroke="#7F542D" stroke-width="0.75" stroke-linecap="round" stroke-linejoin="round"/>
<path d="M552.768 160.7C550.268 162.7 540.768 168.21 533.928 163.12C527.088 158.03 516.768 164.41 516.768 164.41" stroke="#7F542D" stroke-width="0.75" stroke-linecap="round" stroke-linejoin="round"/>
<path d="M516.958 157.68C519.168 155.68 527.218 151.41 532.458 157.11C537.698 162.81 544.528 157.6 544.528 157.6" stroke="#7F542D" stroke-width="0.75" stroke-linecap="round" stroke-linejoin="round"/>
<path d="M526.098 149.21C527.368 150.6 536.448 153.79 541.728 151.86" stroke="#7F542D" stroke-width="0.75" stroke-linecap="round" stroke-linejoin="round"/>
<path d="M539.198 122.66C538.638 119.79 541.198 116.42 543.268 116.23" stroke="#7F542D" stroke-width="0.75" stroke-linecap="round" stroke-linejoin="round"/>
<path d="M545.218 123.34C545.628 121.06 548.348 115.59 552.218 115.34" stroke="#7F542D" stroke-width="0.75" stroke-linecap="round" stroke-linejoin="round"/>
<path d="M551.398 128.25C552.398 123.81 555.328 119.03 559.988 117.06" stroke="#7F542D" stroke-width="0.75" stroke-linecap="round" stroke-linejoin="round"/>
<path d="M555.738 133.76C556.358 128.91 563.068 124.9 566.618 125.15" stroke="#7F542D" stroke-width="0.75" stroke-linecap="round" stroke-linejoin="round"/>
<path d="M554.678 140.9C559.028 137.16 566.568 133.85 570.548 133.58" stroke="#7F542D" stroke-width="0.75" stroke-linecap="round" stroke-linejoin="round"/>
<path d="M530.788 150.44C534.718 151.29 539.118 150.83 538.978 151.01C538.838 151.19 538.158 157.01 533.858 156.4C529.558 155.79 530.788 150.44 530.788 150.44Z" fill="white" stroke="#F4A789" stroke-width="0.75" stroke-linecap="round" stroke-linejoin="round"/>
<path d="M418.238 169.27C420.938 161.74 424.498 154.1 426.158 155.11C428.968 156.82 423.398 171.46 423.398 171.46L418.238 169.27Z" fill="#B25E47" stroke="#914839" stroke-width="0.75" stroke-miterlimit="10"/>
<path d="M414.758 170.99C414.758 170.52 416.418 148.99 419.558 149.48C423.818 150.12 420.428 171.48 420.428 171.48L414.758 170.99Z" fill="#B25E47" stroke="#914839" stroke-width="0.75" stroke-miterlimit="10"/>
<path d="M409.618 174.03C409.498 152.46 409.918 146.91 412.538 146.9C416.158 146.9 416.628 171.75 416.628 171.75L409.618 174.03Z" fill="#B25E47" stroke="#914839" stroke-width="0.75" stroke-miterlimit="10"/>
<path d="M421.708 172.72C421.078 182.91 420.778 188.32 420.778 188.32C420.778 188.32 411.658 193.32 411.068 181.08C410.478 168.84 421.708 172.72 421.708 172.72Z" fill="#B25E47" stroke="#914839" stroke-width="0.75" stroke-miterlimit="10"/>
<path d="M369.568 236.11C357.518 253.98 342.798 278.82 354.688 286.79C366.578 294.76 382.418 291.51 391.888 269.59C401.358 247.67 413.038 209.51 415.378 205.75C417.718 201.99 423.158 197.57 426.668 190.31C430.178 183.05 431.858 182.65 430.668 180.58C429.478 178.51 426.518 179.28 424.958 181.58C423.398 183.88 419.248 188.33 416.908 187.03C414.568 185.73 413.578 183.11 413.538 179.9C413.498 176.69 415.408 173.24 419.078 174.36C422.748 175.48 424.438 180.29 427.548 178.6C430.658 176.91 424.048 170.43 421.708 168.35C419.368 166.27 417.558 167.7 413.708 169C409.858 170.3 408.648 170.43 406.708 175C404.768 179.57 397.368 194.53 396.198 197.25C395.028 199.97 380.858 219.34 369.568 236.11Z" fill="#B25E47"/>
<path d="M426.668 190.34C430.168 183.07 431.858 182.68 430.668 180.61C429.478 178.54 426.518 179.31 424.958 181.61C423.398 183.91 419.248 188.36 416.908 187.06C414.568 185.76 413.578 183.14 413.538 179.93C413.498 176.72 415.408 173.27 419.078 174.39C422.748 175.51 424.438 180.32 427.548 178.63C430.658 176.94 424.048 170.46 421.708 168.38C419.368 166.3 417.558 167.73 413.708 169.03C409.858 170.33 408.648 170.46 406.708 175.03" stroke="#914839" stroke-width="0.75" stroke-linecap="round" stroke-linejoin="round"/>
<path d="M366.588 240.6C364.518 243.78 362.438 247.1 360.488 250.45" stroke="#914839" stroke-width="0.75" stroke-linecap="round" stroke-linejoin="round"/>
<path d="M184.508 253.1C181.208 258.23 188.008 262.1 194.148 266.1C200.288 270.1 201.898 251.9 201.898 251.9C201.898 251.9 186.328 250.27 184.508 253.1Z" fill="#FCC71F"/>
<path d="M368.198 230.87C370.278 232.43 367.198 237.62 361.288 243.39L356.438 237.13C356.438 237.13 363.348 229.08 368.198 230.87Z" fill="#FCC71F"/>
<path d="M358.398 232.43C372.238 247.08 388.298 266.36 379.768 281C371.238 295.64 350.878 287.87 338.558 276.64C338.558 276.64 328.528 257.34 358.398 232.43Z" fill="#B25E47"/>
<path d="M194.028 252.69C188.708 264.5 173.318 290.88 189.628 301.76C205.938 312.64 225.778 274.47 225.778 274.47C225.778 274.47 219.718 251.65 194.028 252.69Z" fill="#B25E47"/>
<path d="M368.198 230.87C357.036 239.137 348.289 250.241 342.868 263.03C340.925 267.39 339.479 271.956 338.558 276.64C335.358 274.32 327.798 268.64 327.798 268.64C327.238 272.17 326.508 276.23 325.798 280.33C323.608 292.1 321.088 304.1 321.088 304.1H246.278L245.018 299.1L235.238 260.34L225.778 274.45C225.588 274.22 225.398 274 225.188 273.79C214.188 261.9 184.508 253.08 184.508 253.08C192.572 239.476 202.197 226.861 213.188 215.49C216.406 212.205 219.787 209.085 223.318 206.14C228.263 202.222 233.687 198.949 239.458 196.4C246.02 193.419 252.821 190.994 259.788 189.15C259.788 189.15 259.948 173.23 261.688 154.41C262.458 145.92 279.688 144.26 283.688 158.7C287.688 173.14 290.688 182.42 290.688 182.42C294.99 181.785 299.343 181.554 303.688 181.73C309.198 181.95 315.468 182.96 320.378 185.79C323.018 187.32 328.288 191.89 334.378 197.56C348.928 211.09 368.198 230.87 368.198 230.87Z" fill="#FED81D"/>
<path d="M342.868 263.03C340.925 267.39 339.479 271.956 338.558 276.64C335.358 274.32 327.798 268.64 327.798 268.64C330.037 257.682 331.143 246.524 331.098 235.34C331.072 230.416 329.894 225.567 327.658 221.18C334.598 225.09 340.358 229.35 336.988 238.63C333.798 247.23 334.288 261.59 342.868 263.03Z" fill="#FCC71F"/>
<path d="M270.298 302.06L245.018 299.06L235.238 260.34C237.926 255.929 240.267 251.315 242.238 246.54C252.338 258.54 231.058 272.54 264.168 279.84C280.688 283.5 270.298 302.06 270.298 302.06Z" fill="#FCC71F"/>
<path d="M334.408 197.58C325.638 198.38 317.118 205.06 311.768 222.91C302.128 255.08 266.888 251.3 254.768 229.04C245.278 211.6 233.588 209.64 213.168 215.51C216.386 212.225 219.767 209.105 223.298 206.16C228.244 202.242 233.667 198.969 239.438 196.42C246 193.439 252.801 191.014 259.768 189.17C259.768 189.17 259.928 173.25 261.668 154.43C262.438 145.94 279.668 144.28 283.668 158.72C287.668 173.16 290.668 182.44 290.668 182.44C294.971 181.805 299.323 181.574 303.668 181.75C309.178 181.97 315.448 182.98 320.358 185.81C323.038 187.34 328.308 191.91 334.408 197.58Z" fill="#FED81D"/>
<path d="M303.708 181.75C303.868 192.54 294.518 199.75 283.788 201.44C273.058 203.13 255.258 201.87 239.458 196.44C246.02 193.459 252.821 191.034 259.788 189.19C259.788 189.19 259.948 173.27 261.688 154.45C262.458 145.96 279.688 144.3 283.688 158.74C284.598 161.99 285.458 164.98 286.228 167.66C287.878 173.31 289.168 177.6 289.928 180.06C290.408 181.62 290.678 182.46 290.678 182.46C294.99 181.816 299.352 181.578 303.708 181.75Z" fill="#B25E47"/>
<path d="M289.948 180.04C280.468 180.8 274.948 175.18 275.018 167.67C275.018 167.67 281.658 167.67 286.248 167.67C287.898 173.34 289.188 177.58 289.948 180.04Z" fill="#914839"/>
<path d="M329.508 423.42H227.098C227.098 423.42 222.948 372.56 229.178 345.51C231.696 334.641 235.039 323.98 239.178 313.62C240.983 308.978 243.019 304.429 245.278 299.99L321.098 304.11C321.858 307.17 322.548 310.35 323.188 313.62C332.098 359.68 329.508 423.42 329.508 423.42Z" fill="#A7CAF0"/>
<mask id="mask0_601_3602" style="mask-type:alpha" maskUnits="userSpaceOnUse" x="225" y="299" width="105" height="125">
<path d="M329.508 423.42H227.098C227.098 423.42 222.948 372.56 229.178 345.51C231.696 334.641 235.039 323.98 239.178 313.62C240.983 308.978 243.019 304.429 245.278 299.99L321.098 304.11C321.858 307.17 322.548 310.35 323.188 313.62C332.098 359.68 329.508 423.42 329.508 423.42Z" fill="#A7CAF0"/>
</mask>
<g mask="url(#mask0_601_3602)">
<path d="M251.877 360.256C255.425 356.383 255.161 350.367 251.288 346.819C247.415 343.272 241.4 343.535 237.852 347.408C234.304 351.281 234.568 357.297 238.441 360.845C242.314 364.392 248.329 364.129 251.877 360.256Z" stroke="white" stroke-miterlimit="10"/>
<path d="M261.105 425.075C264.819 421.361 264.819 415.339 261.105 411.626C257.391 407.912 251.37 407.912 247.656 411.626C243.942 415.339 243.942 421.361 247.656 425.075C251.37 428.789 257.391 428.789 261.105 425.075Z" stroke="white" stroke-miterlimit="10"/>
<path d="M300.325 362.359C304.039 358.645 304.039 352.624 300.325 348.91C296.611 345.196 290.59 345.196 286.876 348.91C283.162 352.624 283.162 358.645 286.876 362.359C290.59 366.073 296.611 366.073 300.325 362.359Z" stroke="white" stroke-miterlimit="10"/>
<path d="M303.73 430.344C308.843 429.142 312.013 424.023 310.811 418.91C309.609 413.798 304.49 410.627 299.377 411.829C294.264 413.031 291.094 418.15 292.296 423.263C293.498 428.376 298.617 431.546 303.73 430.344Z" stroke="white" stroke-miterlimit="10"/>
<path d="M290.8 327.429C295.91 326.217 299.071 321.091 297.859 315.981C296.647 310.87 291.522 307.71 286.411 308.922C281.301 310.134 278.14 315.259 279.352 320.369C280.564 325.48 285.689 328.64 290.8 327.429Z" stroke="white" stroke-miterlimit="10"/>
<path d="M274.988 392.21C278.191 392.21 280.788 389.613 280.788 386.41C280.788 383.207 278.191 380.61 274.988 380.61C271.785 380.61 269.188 383.207 269.188 386.41C269.188 389.613 271.785 392.21 274.988 392.21Z" stroke="white" stroke-miterlimit="10"/>
<path d="M328.938 377.64C332.141 377.64 334.738 375.043 334.738 371.84C334.738 368.637 332.141 366.04 328.938 366.04C325.735 366.04 323.138 368.637 323.138 371.84C323.138 375.043 325.735 377.64 328.938 377.64Z" stroke="white" stroke-miterlimit="10"/>
<path d="M330.398 330.86C330.398 332.007 330.058 333.129 329.421 334.082C328.783 335.036 327.877 335.78 326.818 336.219C325.758 336.657 324.592 336.772 323.467 336.549C322.341 336.325 321.308 335.772 320.497 334.961C319.686 334.15 319.133 333.117 318.91 331.992C318.686 330.866 318.801 329.7 319.24 328.64C319.679 327.581 320.422 326.675 321.376 326.037C322.33 325.4 323.451 325.06 324.598 325.06C326.136 325.06 327.612 325.671 328.699 326.759C329.787 327.847 330.398 329.322 330.398 330.86V330.86Z" stroke="white" stroke-miterlimit="10"/>
<path d="M234.098 389.45C234.098 390.597 233.758 391.718 233.121 392.672C232.483 393.626 231.577 394.369 230.518 394.808C229.458 395.247 228.292 395.362 227.167 395.139C226.041 394.915 225.008 394.362 224.197 393.551C223.386 392.74 222.833 391.707 222.609 390.581C222.386 389.456 222.501 388.29 222.94 387.23C223.379 386.171 224.122 385.265 225.076 384.627C226.03 383.99 227.151 383.65 228.298 383.65C229.836 383.653 231.309 384.265 232.396 385.352C233.483 386.439 234.095 387.913 234.098 389.45V389.45Z" stroke="white" stroke-miterlimit="10"/>
<path d="M254.378 330.86C257.581 330.86 260.178 328.263 260.178 325.06C260.178 321.857 257.581 319.26 254.378 319.26C251.175 319.26 248.578 321.857 248.578 325.06C248.578 328.263 251.175 330.86 254.378 330.86Z" stroke="white" stroke-miterlimit="10"/>
</g>
<path d="M258.098 189.61C258.098 189.61 270.618 211.23 285.878 220.48C285.878 220.48 294.358 208.08 292.968 182.14" stroke="#683F1D" stroke-miterlimit="10"/>
<path d="M281.738 221.14C281.738 222.008 281.996 222.857 282.478 223.579C282.96 224.301 283.646 224.864 284.448 225.196C285.25 225.528 286.133 225.615 286.985 225.446C287.836 225.276 288.618 224.858 289.232 224.244C289.846 223.63 290.265 222.848 290.434 221.996C290.603 221.145 290.516 220.262 290.184 219.46C289.852 218.658 289.289 217.972 288.567 217.49C287.845 217.007 286.997 216.75 286.128 216.75C284.964 216.75 283.847 217.213 283.024 218.036C282.201 218.859 281.738 219.976 281.738 221.14Z" fill="white"/>
<path d="M327.798 268.65C330.038 257.689 331.143 246.527 331.098 235.34C331.072 230.416 329.894 225.567 327.658 221.18C325.798 217.18 323.788 213.51 323.368 208.58" stroke="#FCC71F" stroke-width="0.75" stroke-linecap="round" stroke-linejoin="round"/>
<path d="M243.518 243.47C243.518 243.47 243.048 244.69 242.248 246.56C240.277 251.335 237.936 255.949 235.248 260.36" stroke="#FCC71F" stroke-width="0.75" stroke-linecap="round" stroke-linejoin="round"/>
<path d="M323.098 313.62H239.098C240.903 308.978 242.939 304.429 245.198 299.99L321.098 304.11C321.808 307.17 322.498 310.34 323.098 313.62Z" fill="#83ADDF"/>
<path d="M289.728 313.62V336.49" stroke="#83ADDF" stroke-width="0.75" stroke-linecap="round" stroke-linejoin="round"/>
<path d="M291.488 338.03C293.868 336.72 295.238 336.1 295.488 334.66C295.738 333.22 296.928 317.34 296.928 317.34" stroke="#83ADDF" stroke-width="0.75" stroke-linecap="round" stroke-linejoin="round"/>
<path d="M288.598 423.42C288.598 423.42 289.198 359.65 289.698 356.75C289.695 356.72 289.695 356.69 289.698 356.66C290.208 355.71 291.238 354.3 296.898 350.99" stroke="#83ADDF" stroke-width="0.75" stroke-linecap="round" stroke-linejoin="round"/>
<path d="M164.598 192.19C169.658 190.25 175.168 190.64 182.208 194C190.448 197.94 197.588 208.07 194.108 222C193.538 224.25 184.778 228.93 183.328 227.9C181.878 226.87 193.358 198.34 164.598 192.19Z" fill="white"/>
<path d="M255.448 154.72C250.968 154.29 248.148 156.13 246.058 159.94C243.968 163.75 241.328 167.55 241.328 167.55C241.328 167.55 246.768 169.77 252.078 163.74C257.018 158.12 255.448 154.72 255.448 154.72Z" fill="#FED81D"/>
<path d="M258.718 156.46C253.658 157.81 251.288 159.85 250.378 165.98C249.468 172.11 249.788 174.92 249.138 177.23C249.138 177.23 255.618 175.73 258.718 169.91C261.668 164.34 260.918 160.77 258.718 156.46Z" fill="#FED81D"/>
<path d="M265.098 123.74C265.098 123.74 260.218 134.34 260.098 143.23C260.023 145.241 260.321 147.248 260.978 149.15L255.568 149.78C250.938 154.23 242.568 152.7 245.568 147.02C240.568 150.14 234.018 145.87 237.268 141.36C233.378 142.28 231.398 135.99 236.408 134.36C232.238 133.91 231.408 126.47 237.058 126.04C236.565 125.529 236.227 124.888 236.082 124.193C235.937 123.497 235.992 122.775 236.24 122.11C236.487 121.444 236.918 120.862 237.482 120.43C238.046 119.998 238.721 119.735 239.428 119.67C240.017 119.653 240.603 119.77 241.14 120.012C241.677 120.255 242.152 120.617 242.528 121.07C240.108 112.35 250.338 109.57 253.478 114.15C254.028 110.46 260.948 110.08 261.978 114.84C267.198 111.96 270.598 118.96 265.098 123.74Z" fill="#683F1D"/>
<path d="M261.018 149.15L255.608 149.78C250.978 154.23 242.608 152.7 245.608 147.02C240.608 150.14 234.058 145.87 237.308 141.36C233.418 142.28 231.438 135.99 236.448 134.36C232.278 133.91 231.448 126.47 237.098 126.04C236.605 125.529 236.267 124.888 236.122 124.193C235.977 123.497 236.032 122.775 236.28 122.11C236.527 121.444 236.958 120.862 237.522 120.43C238.086 119.998 238.761 119.735 239.468 119.67C239.108 122.75 240.468 127.11 243.468 127.41C239.368 128.92 239.398 133.78 243.468 135.49C240.918 138.32 244.738 142.3 247.928 140.06C247.808 143.18 252.498 148.26 260.078 143.18C260.016 145.211 260.334 147.236 261.018 149.15Z" fill="#683F1D"/>
<path d="M290.908 172.69C276.378 174.69 263.698 158.33 263.698 158.33C257.068 160.65 251.928 155.5 253.998 150.33C254.372 149.37 255.006 148.532 255.828 147.91C256.493 147.412 257.262 147.07 258.078 146.91C258.704 146.792 259.345 146.768 259.978 146.84C261.193 146.979 262.353 147.423 263.349 148.131C264.346 148.839 265.147 149.789 265.678 150.89C266.138 151.69 269.228 151.55 267.848 148.03C266.638 144.97 265.318 145.2 265.318 145.2C267.318 144.57 265.728 140.09 263.318 140.73C265.318 139.87 266.018 136.08 263.778 134.73C266.188 134.6 268.828 133.64 267.848 129.97C268.291 130.506 268.881 130.901 269.544 131.109C270.208 131.316 270.918 131.326 271.587 131.137C272.257 130.949 272.857 130.57 273.315 130.047C273.773 129.523 274.07 128.878 274.168 128.19C274.613 128.624 275.174 128.92 275.784 129.041C276.393 129.162 277.025 129.104 277.602 128.873C278.179 128.642 278.677 128.249 279.035 127.741C279.393 127.232 279.595 126.631 279.618 126.01C279.918 127.36 281.498 127.76 282.748 127.01C285.569 130.09 288.081 133.44 290.248 137.01L290.328 137.14C291.548 139.04 292.698 140.96 293.738 142.87C301.628 157.34 303.698 170.92 290.908 172.69Z" fill="#B25E47"/>
<path d="M273.348 145.39C272.818 147.18 269.568 147.79 266.098 146.76C262.628 145.73 260.228 143.44 260.758 141.65C261.288 139.86 264.538 139.26 268.008 140.29C271.478 141.32 273.878 143.61 273.348 145.39Z" fill="#914839"/>
<path d="M293.798 142.94C292.368 143.94 290.958 144.26 290.038 143.62C288.648 142.68 288.848 139.94 290.388 137.21C291.608 139.11 292.758 141.03 293.798 142.94Z" fill="#914839"/>
<path d="M259.988 146.9C259.355 146.828 258.714 146.852 258.088 146.97C257.272 147.13 256.503 147.472 255.838 147.97C251.218 134.39 263.398 127.48 263.398 127.48C258.758 134.23 259.478 143.34 259.988 146.9Z" fill="white"/>
<path d="M283.738 136.87C283.736 137.135 283.813 137.394 283.958 137.615C284.103 137.836 284.31 138.01 284.554 138.113C284.797 138.217 285.066 138.246 285.326 138.197C285.586 138.148 285.826 138.023 286.015 137.838C286.204 137.653 286.334 137.416 286.389 137.157C286.444 136.898 286.421 136.629 286.323 136.383C286.225 136.138 286.056 135.926 285.838 135.776C285.62 135.626 285.363 135.544 285.098 135.54C284.921 135.536 284.745 135.567 284.58 135.633C284.415 135.698 284.265 135.795 284.138 135.919C284.011 136.043 283.911 136.191 283.842 136.354C283.773 136.517 283.738 136.693 283.738 136.87Z" fill="#683F1D"/>
<path d="M275.018 139.7C275.018 139.965 275.097 140.224 275.244 140.444C275.391 140.665 275.6 140.837 275.845 140.938C276.09 141.039 276.36 141.066 276.619 141.014C276.879 140.963 277.118 140.835 277.306 140.648C277.493 140.46 277.621 140.221 277.672 139.961C277.724 139.701 277.697 139.432 277.596 139.187C277.495 138.942 277.323 138.733 277.103 138.586C276.882 138.439 276.623 138.36 276.358 138.36C276.182 138.36 276.008 138.395 275.845 138.462C275.683 138.529 275.535 138.628 275.411 138.752C275.286 138.877 275.187 139.025 275.12 139.187C275.053 139.35 275.018 139.524 275.018 139.7Z" fill="#683F1D"/>
<path d="M283.938 125.74C283.692 126.274 283.3 126.728 282.808 127.05C281.558 127.84 279.978 127.44 279.678 126.05C279.655 126.671 279.453 127.272 279.095 127.781C278.737 128.289 278.24 128.682 277.662 128.913C277.085 129.144 276.454 129.202 275.844 129.081C275.234 128.96 274.673 128.664 274.228 128.23C274.13 128.918 273.833 129.563 273.375 130.087C272.917 130.61 272.317 130.989 271.648 131.177C270.978 131.366 270.268 131.356 269.605 131.149C268.941 130.941 268.351 130.546 267.908 130.01C268.908 133.68 266.248 134.64 263.838 134.77C266.078 136.1 265.328 139.89 263.378 140.77C265.738 140.13 267.378 144.61 265.378 145.24C265.378 145.24 266.698 145.01 267.908 148.07C269.288 151.59 266.198 151.73 265.738 150.93C265.077 149.529 263.978 148.381 262.607 147.66C261.236 146.938 259.667 146.682 258.138 146.93C257.479 144.173 257.347 141.316 257.748 138.51C258.373 134.288 260.373 130.39 263.438 127.42C261.278 124 265.348 119.53 268.748 122.11C268.308 119 273.668 117.03 275.698 120.75C276.868 117.41 281.838 119.45 281.278 121.92C282.898 121.04 285.098 123.34 283.938 125.74Z" fill="#683F1D"/>
<path d="M278.968 135.54C282.258 142.59 287.248 138.73 288.508 144.05" stroke="#914839" stroke-width="0.75" stroke-linecap="round" stroke-linejoin="round"/>
<path d="M276.188 147.34C281.888 148.95 285.868 147.9 286.808 147.34C286.808 147.34 287.368 152.4 282.268 151.99C280.893 151.958 279.563 151.49 278.471 150.655C277.378 149.819 276.579 148.659 276.188 147.34Z" fill="white" stroke="#914839" stroke-width="0.75" stroke-linecap="round" stroke-linejoin="round"/>
<path d="M256.988 153.13C257.698 149.54 263.298 149.58 264.338 154.72" stroke="#914839" stroke-width="0.75" stroke-linecap="round" stroke-linejoin="round"/>
<path d="M261.498 156.46C258.368 155.65 259.848 150.91 263.268 152.27" stroke="#914839" stroke-width="0.75" stroke-linecap="round" stroke-linejoin="round"/>
<path d="M270.338 136.52C270.088 138.19 276.338 134.58 275.048 132.52C273.758 130.46 270.568 134.9 270.338 136.52Z" fill="#683F1D"/>
<path d="M286.248 130.39C287.548 131.47 280.478 132.98 280.098 130.61C279.718 128.24 284.988 129.34 286.248 130.39Z" fill="#683F1D"/>
<path d="M225.278 275.47C220.188 274.458 215.047 273.724 209.878 273.27" stroke="#914839" stroke-width="0.75" stroke-linecap="round" stroke-linejoin="round"/>
<path d="M209.878 273.27C191.518 271.65 178.018 286.99 186.208 298.75C196.568 313.62 262.888 309.82 269.698 309.65C274.018 309.55 273.698 312.73 280.308 313.35C284.308 313.74 290.428 313.76 291.718 313.11C292.687 312.459 293.47 311.566 293.988 310.52C293.988 310.52 297.768 312.03 299.278 307.71C299.278 307.71 303.128 308.58 303.758 303.17C303.758 303.17 306.088 306.07 308.238 305.01C310.698 303.8 311.048 302.01 309.318 299.72C307.588 297.43 300.468 289.34 298.098 288.49C295.728 287.64 277.928 290.79 274.888 290.11C259.618 286.7 238.718 275.81 209.878 273.27Z" fill="#B25E47"/>
<path d="M287.568 313.61C288.969 313.661 290.369 313.493 291.718 313.11C292.688 312.459 293.47 311.566 293.988 310.52C293.988 310.52 297.768 312.03 299.278 307.71C299.278 307.71 303.128 308.58 303.758 303.17C303.758 303.17 306.088 306.07 308.238 305.01C310.698 303.8 311.048 302.01 309.318 299.72C307.588 297.43 300.468 289.34 298.098 288.49" stroke="#914839" stroke-width="0.75" stroke-linecap="round" stroke-linejoin="round"/>
<path d="M304.248 303.71L298.828 297.77" stroke="#914839" stroke-width="0.75" stroke-linecap="round" stroke-linejoin="round"/>
<path d="M299.278 307.71L293.598 304.11" stroke="#914839" stroke-width="0.75" stroke-linecap="round" stroke-linejoin="round"/>
<path d="M293.988 310.52L290.108 309.33" stroke="#914839" stroke-width="0.75" stroke-linecap="round" stroke-linejoin="round"/>
<path d="M193.188 98.7402L189.108 99.1602L184.288 99.6802L187.558 96.2602L190.578 93.1102L193.188 98.7402Z" fill="white"/>
<path d="M177.238 220.48C189.898 228.48 201.428 219.64 204.608 203.54C209.298 179.77 213.328 119.72 213.328 119.72C213.328 119.72 219.758 105.8 221.808 100.77C223.858 95.7402 223.528 91.2702 220.548 89.9802C220.548 89.9802 217.548 80.6802 212.928 80.3902C212.04 79.9159 211.113 79.5178 210.158 79.2002C207.848 78.7302 203.598 80.8602 202.478 82.0402C201.358 83.2202 205.078 84.4602 207.198 84.1102C209.318 83.7602 210.868 89.1102 209.918 91.3702C208.968 93.6302 204.918 98.1702 203.478 96.9902C202.038 95.8102 201.588 91.7302 202.178 88.5402C202.768 85.3502 202.358 83.7502 200.228 84.9902C198.098 86.2302 193.968 96.5702 194.438 98.4602C194.908 100.35 197.628 108.15 197.808 109.46C197.988 110.77 177.208 179.16 173.108 191.03C169.008 202.9 168.288 214.83 177.238 220.48Z" fill="#FEBD9D"/>
<path d="M220.548 89.9802C220.791 91.5729 220.931 93.1795 220.968 94.7902" stroke="#F4A789" stroke-width="0.75" stroke-linecap="round" stroke-linejoin="round"/>
<path d="M215.098 87.3402C215.697 89.5394 216.033 91.8019 216.098 94.0802" stroke="#F4A789" stroke-width="0.75" stroke-linecap="round" stroke-linejoin="round"/>
<path d="M190.578 93.1102L197.368 89.2502C195.808 92.4502 194.368 96.5202 194.368 98.1002L193.158 98.7402C192.618 98.5409 192.123 98.237 191.701 97.8459C191.279 97.4548 190.938 96.9842 190.699 96.4611C190.459 95.938 190.325 95.3727 190.304 94.7977C190.283 94.2226 190.377 93.6492 190.578 93.1102Z" fill="#683F1D"/>
<path d="M189.108 99.1602L184.288 99.6802L187.558 96.2602L189.108 99.1602Z" fill="#683F1D"/>
<path d="M194.438 98.4702C193.968 96.5802 198.108 86.2302 200.228 85.0002C201.798 84.0802 202.438 84.7002 202.428 86.3802C202.41 87.1063 202.327 87.8293 202.178 88.5402C201.98 89.6556 201.893 90.7877 201.918 91.9202C201.918 92.0702 201.918 92.2202 201.918 92.3602V92.7902C201.918 93.0002 201.918 93.2102 201.988 93.4102L202.078 94.0102C202.172 95.1351 202.648 96.1938 203.428 97.0102C204.908 98.2002 208.928 93.7002 209.868 91.4102C210.065 90.8896 210.163 90.3368 210.158 89.7802" stroke="#F4A789" stroke-width="0.75" stroke-linecap="round" stroke-linejoin="round"/>
<path d="M206.298 84.1702C204.178 84.1702 201.498 83.0702 202.468 82.0402C203.598 80.8602 207.848 78.7302 210.158 79.2002C211.113 79.5154 212.039 79.9102 212.928 80.3802" stroke="#F4A789" stroke-width="0.75" stroke-linecap="round" stroke-linejoin="round"/>
<path d="M218.508 85.3402C219.3 86.8227 219.969 88.3679 220.508 89.9602C222.448 90.8002 223.268 92.9602 223.028 95.8102" stroke="#F4A789" stroke-width="0.75" stroke-linecap="round" stroke-linejoin="round"/>
<path d="M222.808 83.1002L218.508 85.3602L210.208 89.7502L202.098 94.0102C201.8 92.1975 201.817 90.3471 202.148 88.5402C202.296 87.8292 202.38 87.1063 202.398 86.3802L206.268 84.1702L212.928 80.3802L219.458 76.6802L222.808 83.1002Z" fill="#683F1D"/>
<path d="M218.248 76.6802C217.878 78.3702 219.078 83.3102 222.188 84.3002L224.188 83.0602L220.338 75.5502L218.248 76.6802Z" fill="white"/>
<path d="M223.838 78.3402C224.998 80.4602 225.248 82.5402 224.408 83.0002C223.568 83.4602 221.948 82.1202 220.798 80.0002C219.648 77.8802 219.388 75.8002 220.228 75.3402C221.068 74.8802 222.678 76.2202 223.838 78.3402Z" fill="#683F1D"/>
<path d="M194.438 98.4702C193.968 96.5802 198.108 86.2302 200.228 85.0002C201.798 84.0802 202.438 84.7002 202.428 86.3802C202.41 87.1063 202.327 87.8293 202.178 88.5402C201.98 89.6556 201.893 90.7877 201.918 91.9202C201.918 92.0702 201.918 92.2202 201.918 92.3602V92.7902C201.918 93.0002 201.918 93.2102 201.988 93.4102L202.078 94.0102C202.172 95.1351 202.648 96.1938 203.428 97.0102C204.908 98.2002 208.928 93.7002 209.868 91.4102C210.065 90.8896 210.163 90.3368 210.158 89.7802" stroke="#F4A789" stroke-width="0.75" stroke-linecap="round" stroke-linejoin="round"/>
<path d="M81.518 201.97C78.588 214.97 58.318 210.81 57.178 204.15C56.038 197.49 57.878 195.84 59.438 183.64C60.718 173.64 77.698 173.45 80.708 180.16C81.1929 181.243 81.3054 182.456 81.028 183.61C80.3956 187.016 80.3787 190.508 80.978 193.92C81.408 197.12 81.988 199.84 81.518 201.97Z" fill="#FEBD9D"/>
<path d="M81.0278 183.61C80.3955 187.016 80.3786 190.508 80.9779 193.92C72.3179 191.42 70.8079 181.7 70.8079 181.7L80.7079 180.16C81.1928 181.243 81.3053 182.456 81.0278 183.61Z" fill="#F4A789"/>
<path d="M29.4978 293.99L48.9978 301.47C48.9978 301.47 46.2878 324.01 46.0778 323.68C45.8678 323.35 13.2578 319.95 13.2578 319.95L29.4978 293.99Z" fill="#FEBD9D"/>
<path d="M1.0979 307.11C3.8179 316.94 10.6379 320.52 17.1679 320.3C23.6979 320.08 32.7379 316.65 36.0979 306.34C38.6679 298.45 33.0979 288.99 33.0979 288.99L1.0979 307.11Z" fill="white"/>
<path d="M38.2179 423.42C38.2179 423.42 40.7179 409.78 35.4279 387.21C33.1664 378.395 32.1565 369.306 32.4279 360.21C33.0379 346.29 37.3479 330.74 47.9579 309.59L115.958 306.8C118.998 316.26 121.758 324.954 124.238 332.88C131.768 356.88 136.898 374.18 140.488 385.88C145.268 401.44 153.348 423.43 153.348 423.43L38.2179 423.42Z" fill="#FED81D"/>
<path d="M124.278 332.89C117.108 353.73 106.908 363.17 80.528 353.46C56.808 344.74 48.108 338.46 32.468 360.22C33.078 346.3 37.388 330.75 47.998 309.6L115.998 306.81C119.038 316.27 121.798 324.964 124.278 332.89Z" fill="#FED81D"/>
<path d="M117.948 271.63C114.198 286.18 117.668 301.98 119.188 305.44C120.708 308.9 119.468 311.27 117.258 311.68C115.048 312.09 49.8979 314.04 46.9779 313.62C44.0579 313.2 43.1079 310.99 43.1079 308.5C43.1079 306.01 37.9779 288.5 35.4779 281.5C35.4779 281.5 35.2079 301.04 29.7979 306.86C24.3879 312.68 11.7979 315.04 3.88793 310.75C2.41286 309.817 1.36407 308.34 0.967931 306.64C-2.03207 297.3 2.60793 275.97 5.82793 260.72C7.10793 254.6 8.95793 246.95 11.3179 239.31C16.0679 223.92 22.8979 208.54 31.3179 205.79C50.0979 199.66 63.7679 202.05 73.7279 201.12C76.8279 200.82 79.8279 200.46 82.7279 200.12H82.8379C98.6279 198.12 110.718 196.29 116.718 206.44C117.646 208.05 118.378 209.766 118.898 211.55C122.608 223.79 121.068 231.86 120.258 243.16C120.258 243.61 120.208 244.06 120.178 244.52C120.95 253.618 120.197 262.781 117.948 271.63Z" fill="#A7CAF0"/>
<path d="M35.478 281.46C35.478 281.46 35.208 301 29.798 306.82C24.388 312.64 11.798 315 3.88802 310.71C2.41295 309.777 1.36416 308.3 0.968018 306.6C26.438 314.17 34.918 287.07 28.128 282.07C21.518 277.2 21.618 264.14 25.658 257.35C28.348 265.14 33.408 275.06 35.478 281.46Z" fill="#A7CAF0"/>
<path d="M116.708 206.34C109.498 211.84 103.458 218.88 101.028 228.01C99.3879 234.15 96.7279 238.94 93.1379 242.34C83.4079 251.6 66.8279 250.62 45.3779 238.55C30.5279 230.21 20.3779 231.98 11.3179 239.24C16.0679 223.85 22.8979 208.47 31.3179 205.72C50.0979 199.59 63.7679 201.98 73.7279 201.05C76.8279 200.75 79.8279 200.39 82.7279 200.05H82.8379C98.6179 198.09 110.708 196.23 116.708 206.34Z" fill="#A7CAF0"/>
<path d="M23.938 250.41C24.2328 252.787 24.8102 255.12 25.658 257.36C28.348 265.14 33.408 275.06 35.478 281.46" stroke="#83ADDF" stroke-width="0.75" stroke-linecap="round" stroke-linejoin="round"/>
<path d="M188.638 224.04C184.508 226.79 161.158 233.31 142.768 238.59C135.404 240.736 127.87 242.245 120.248 243.1C113.523 243.879 106.737 244.003 99.988 243.47C97.665 243.277 95.3611 242.899 93.098 242.34C64.408 235.4 68.978 202.53 82.678 200.03H82.788C102.335 196.586 122.048 194.166 141.848 192.78C150.428 192.25 159.188 192.01 167.638 192.23C200.498 193.12 192.768 221.34 188.638 224.04Z" fill="#A7CAF0"/>
<path d="M188.638 224.04C184.508 226.79 161.158 233.31 142.768 238.59C135.405 240.736 127.87 242.245 120.248 243.1C113.523 243.879 106.737 244.003 99.988 243.47" stroke="#83ADDF" stroke-width="0.75" stroke-linecap="round" stroke-linejoin="round"/>
<path d="M141.888 192.81C134.338 195.94 124.788 200.2 116.708 206.38C109.498 211.88 103.458 218.92 101.028 228.05C99.388 234.19 96.728 238.98 93.138 242.38C64.448 235.44 69.018 202.57 82.718 200.07H82.828C102.375 196.623 122.088 194.199 141.888 192.81Z" fill="#A7CAF0"/>
<path d="M164.598 192.19C169.658 190.25 175.168 190.64 182.208 194C190.448 197.94 197.588 208.07 194.108 222C193.538 224.25 184.778 228.93 183.328 227.9C181.878 226.87 193.358 198.34 164.598 192.19Z" fill="white"/>
<path d="M62.0979 184.78C79.4679 188.89 88.2379 187.12 90.4779 177.97C92.7179 168.82 83.3879 154.91 83.3879 154.91L84.1279 149.91C82.0563 148.955 80.0337 147.897 78.0679 146.74C77.1279 145.99 74.0679 138.24 71.2479 137.49C68.4279 136.74 48.6579 146.92 54.5379 163.72C60.4179 180.52 62.0979 184.78 62.0979 184.78Z" fill="#FEBD9D"/>
<path d="M78.9579 159.68C78.3579 161.58 75.2279 162.3 71.9579 161.28C68.6879 160.26 66.5379 157.88 67.1279 155.97C67.7179 154.06 70.8579 153.34 74.1279 154.37C77.3979 155.4 79.5579 157.77 78.9579 159.68Z" fill="#F4A789"/>
<path d="M83.3581 154.91L84.0981 149.91C82.0264 148.955 80.0039 147.897 78.0381 146.74" stroke="#F4A789" stroke-width="0.75" stroke-linecap="round" stroke-linejoin="round"/>
<path d="M69.148 219.92C60.978 221.92 58.958 213.65 58.958 213.65C52.368 220.48 44.578 218.52 42.778 214.91C42.778 214.91 36.068 217.68 30.698 213.65C23.318 208.12 28.128 199.89 28.128 199.89C20.388 197.89 21.808 190.16 26.248 186.89L26.908 186.43C31.528 183.43 39.828 181.43 36.778 175.43C33.598 169.04 30.988 160.24 39.198 155.32C39.198 155.32 39.618 145.83 45.518 142.72C51.418 139.61 51.808 138.38 51.938 136.62C52.388 130.14 58.508 124.02 65.448 128.79C65.668 128.94 65.898 129.1 66.118 129.27C73.548 128.53 75.508 135.52 74.258 138.89C76.918 147.61 70.578 154.15 72.378 157.2C74.438 160.68 72.868 164.84 72.868 164.84C69.798 159.97 66.018 158.43 63.418 162.6C61.308 166 63.028 170.45 69.858 174.69C77.168 179.23 73.708 185.06 72.108 189.45C71.1744 192.02 70.8608 194.775 71.1927 197.489C71.5246 200.203 72.4926 202.801 74.018 205.07C77.548 210.1 77.318 217.96 69.148 219.92Z" fill="#7F542D"/>
<path d="M69.148 219.92C60.978 221.92 58.958 213.65 58.958 213.65C52.368 220.48 44.578 218.52 42.778 214.91C42.778 214.91 36.068 217.68 30.698 213.65C23.318 208.12 28.128 199.89 28.128 199.89C20.388 197.89 21.808 190.16 26.248 186.89L26.908 186.43C30.018 195.16 35.678 199.88 41.448 198.52C49.118 196.74 53.448 192.52 60.628 196.94C67.808 201.36 69.958 180.74 59.438 177.63C48.918 174.52 46.898 156.83 55.998 154.63C62.808 153.03 68.928 139.26 65.448 128.7C65.668 128.85 65.898 129.01 66.118 129.18C73.548 128.44 75.508 135.43 74.258 138.8C76.918 147.52 70.578 154.06 72.378 157.11C74.438 160.59 72.868 164.75 72.868 164.75C69.798 159.88 66.018 158.34 63.418 162.51C61.308 165.91 63.028 170.36 69.858 174.6C77.168 179.14 73.708 184.97 72.108 189.36C71.1744 191.93 70.8608 194.685 71.1927 197.399C71.5246 200.113 72.4926 202.711 74.018 204.98C77.548 210.1 77.318 217.96 69.148 219.92Z" fill="#683F1D"/>
<path d="M75.7881 151.61C75.7881 151.873 75.8661 152.13 76.0123 152.349C76.1584 152.568 76.3661 152.738 76.6092 152.839C76.8522 152.94 77.1196 152.966 77.3776 152.915C77.6356 152.863 77.8726 152.737 78.0586 152.551C78.2446 152.365 78.3713 152.128 78.4226 151.87C78.4739 151.612 78.4476 151.344 78.3469 151.101C78.2462 150.858 78.0758 150.65 77.857 150.504C77.6383 150.358 77.3812 150.28 77.1181 150.28C76.9431 150.279 76.7695 150.312 76.6076 150.379C76.4456 150.445 76.2985 150.543 76.1747 150.667C76.0509 150.79 75.953 150.938 75.8867 151.1C75.8203 151.262 75.7868 151.435 75.7881 151.61Z" fill="#683F1D"/>
<path d="M28.0981 199.9C31.8881 192.39 35.3381 192.61 38.5581 190.13C41.7781 187.65 43.1881 182.49 42.5581 180.13" stroke="#BF8228" stroke-width="0.75" stroke-linecap="round" stroke-linejoin="round"/>
<path d="M42.7781 214.91C41.755 213.249 41.2994 211.301 41.4797 209.358C41.6601 207.416 42.4667 205.584 43.7781 204.14" stroke="#BF8228" stroke-width="0.75" stroke-linecap="round" stroke-linejoin="round"/>
<path d="M58.9581 213.65C58.469 212.38 58.2527 211.021 58.3234 209.661C58.394 208.302 58.75 206.973 59.3681 205.76" stroke="#BF8228" stroke-width="0.75" stroke-linecap="round" stroke-linejoin="round"/>
<path d="M52.7681 143.18C57.2081 142.18 57.6381 139.01 58.9681 136.4C60.2981 133.79 62.3581 129.75 66.1181 129.2" stroke="#BF8228" stroke-width="0.75" stroke-linecap="round" stroke-linejoin="round"/>
<path d="M74.258 138.82C72.908 135.82 68.628 132.23 64.658 135.82" stroke="#BF8228" stroke-width="0.75" stroke-linecap="round" stroke-linejoin="round"/>
<path d="M66.548 168.16C66.458 164.4 70.168 163.52 73.048 166.39" stroke="#F4A789" stroke-width="0.75" stroke-linecap="round" stroke-linejoin="round"/>
<path d="M71.538 169.79C68.638 169.79 68.538 165.44 72.228 165.69" stroke="#F4A789" stroke-width="0.75" stroke-linecap="round" stroke-linejoin="round"/>
<path d="M80.5281 160.53C81.0624 161.208 81.779 161.72 82.5937 162.005C83.4085 162.29 84.2876 162.337 85.1281 162.14" stroke="#F4A789" stroke-width="0.75" stroke-linecap="round" stroke-linejoin="round"/>
<path d="M66.0981 171.79C68.2981 173.56 72.2681 173.31 72.2681 173.31" stroke="#F4A789" stroke-width="0.75" stroke-linecap="round" stroke-linejoin="round"/>
<path d="M74.6381 175.43C76.1956 175.43 77.4581 174.168 77.4581 172.61C77.4581 171.053 76.1956 169.79 74.6381 169.79C73.0807 169.79 71.8181 171.053 71.8181 172.61C71.8181 174.168 73.0807 175.43 74.6381 175.43Z" fill="white"/>
<path d="M72.498 150.34C73.878 151.24 77.198 144.86 74.598 143.11C71.998 141.36 70.638 149.13 72.498 150.34Z" fill="#7F542D"/>
<path d="M632.508 418.35H12.3382C6.87615 418.35 2.44824 422.778 2.44824 428.24V429.79C2.44824 435.252 6.87615 439.68 12.3382 439.68H632.508C637.97 439.68 642.398 435.252 642.398 429.79V428.24C642.398 422.778 637.97 418.35 632.508 418.35Z" fill="#DDDDDD"/>
<path d="M21.6282 439.68C38.0282 431.84 62.3582 430.11 80.8982 439.68" stroke="#DDDDDD" stroke-width="0.75" stroke-linecap="round" stroke-linejoin="round"/>
<path d="M15.9683 418.34C32.1383 427.34 42.8883 426.61 62.8383 426.34C77.6983 426.15 95.5883 433.72 107.498 439.67" stroke="#DDDDDD" stroke-width="0.75" stroke-linecap="round" stroke-linejoin="round"/>
<path d="M92.7183 418.34C104.448 431.53 112.588 433.18 116.528 429.78C120.708 426.17 125.008 425.19 129.448 429C134.588 433.42 141.738 424.47 145.758 418.34" stroke="#DDDDDD" stroke-width="0.75" stroke-linecap="round" stroke-linejoin="round"/>
<path d="M138.458 439.68C143.198 435.31 151.648 429.91 164.808 429.01C180.408 428.01 200.228 435.19 210.808 439.68" stroke="#DDDDDD" stroke-width="0.75" stroke-linecap="round" stroke-linejoin="round"/>
<path d="M190.328 418.34C208.628 427.94 228.628 433.56 244.788 429C260.558 424.57 298.218 430.09 311.918 418.34" stroke="#DDDDDD" stroke-width="0.75" stroke-linecap="round" stroke-linejoin="round"/>
<path d="M259.738 439.68C271.458 433.01 289.738 428.93 303.958 439.68" stroke="#DDDDDD" stroke-width="0.75" stroke-linecap="round" stroke-linejoin="round"/>
<path d="M324.098 439.68C345.888 422.74 389.388 419.68 425.718 428.92C468.718 439.87 487.998 427.23 495.808 418.35" stroke="#DDDDDD" stroke-width="0.75" stroke-linecap="round" stroke-linejoin="round"/>
<path d="M363.278 439.68C379.058 432.59 400.278 431.13 422.688 439.68" stroke="#DDDDDD" stroke-width="0.75" stroke-linecap="round" stroke-linejoin="round"/>
<path d="M500.828 439.68C527.248 427.38 548.388 428.81 567.988 439.68" stroke="#DDDDDD" stroke-width="0.75" stroke-linecap="round" stroke-linejoin="round"/>
<path d="M538.098 418.34C581.628 432.96 617.648 444.28 641.378 424.44" stroke="#DDDDDD" stroke-width="0.75" stroke-linecap="round" stroke-linejoin="round"/>
<path d="M572.818 418.34C594.908 431.34 620.708 430.34 636.588 419.51" stroke="#DDDDDD" stroke-width="0.75" stroke-linecap="round" stroke-linejoin="round"/>
</svg>
