<svg width="316" height="385" viewBox="0 0 316 385" fill="none" xmlns="http://www.w3.org/2000/svg">
<path d="M57.7192 158.222C58.1035 144.814 67.1129 134.417 71.1052 129.4C75.0975 124.383 68.6287 120.561 71.1052 109.609C74.9054 92.8074 94.6535 102.244 94.6535 75.1942C94.6535 66.7826 96.6603 64.9893 96.6603 64.9893C96.6603 64.9893 81.8439 32.4103 108.723 21.6076C108.723 21.6076 111.114 7.77327 135.537 1.58198C159.961 -4.6093 181.951 20.5828 166.131 57.0901L164.935 85.9116C167.224 86.3294 169.314 87.4837 170.886 89.1987C172.459 90.9137 173.428 93.0955 173.646 95.412C175.439 107.624 191.045 100.023 191.857 131.706L57.7192 158.222Z" fill="#7F542D"/>
<path d="M114.466 115.374C102.339 119.131 92.8174 118.448 92.8174 107.602C92.8174 97.4402 105.392 92.0175 103.343 75.5786C101.293 59.1397 104.474 51.1977 110.046 44.0457C115.618 36.8937 123.646 12.5556 143.415 16.8681C163.185 21.1807 166.131 56.9834 166.131 56.9834L155.691 90.3096C155.691 90.3096 168.501 108.072 164.743 114.541C160.986 121.01 114.466 115.374 114.466 115.374Z" fill="#683F1D"/>
<path d="M161.839 91.8254C161.839 91.8254 171.831 91.9748 169.269 104.848C168.362 109.241 168.96 113.811 170.966 117.823C172.972 121.835 176.27 125.056 180.328 126.966" stroke="#BF8228" stroke-width="1.3023" stroke-linecap="round" stroke-linejoin="round"/>
<path d="M108.722 30.8309C97.6208 43.8539 101.912 56.8343 101.912 56.8343" stroke="#BF8228" stroke-width="1.3023" stroke-linecap="round" stroke-linejoin="round"/>
<path d="M97.9418 99.6823C85.8795 105.852 78.8556 117.936 86.3705 129.571C87.9071 131.858 88.9201 134.456 89.3371 137.18C89.7541 139.903 89.5649 142.685 88.783 145.327" stroke="#BF8228" stroke-width="1.3023" stroke-linecap="round" stroke-linejoin="round"/>
<path d="M108.723 21.6079C108.723 21.6079 117.647 24.1911 120.209 29.7206" stroke="#BF8228" stroke-width="1.3023" stroke-linecap="round" stroke-linejoin="round"/>
<path d="M126.677 20.7967C126.677 20.7967 146.639 2.43633 160.943 19.0888" stroke="#BF8228" stroke-width="1.3023" stroke-linecap="round" stroke-linejoin="round"/>
<path d="M171.703 79.4214C172.13 102.564 156.268 108.414 148.624 108.883C131.097 109.502 114.871 89.669 109.449 82.1541C109.256 80.5956 109.043 79.0157 108.787 77.3932C98.3683 79.5281 94.0985 74.7459 92.9243 67.4017C91.7501 60.0576 100.717 51.5392 112.331 60.9969C123.219 53.482 124.735 43.0636 122.45 33.798C125.018 30.1073 128.698 27.3338 132.954 25.8821C137.209 24.4303 141.817 24.3763 146.105 25.728C158.274 29.2719 166.75 45.903 170.102 64.0285C170.864 68.163 171.363 72.3416 171.596 76.5392C171.639 77.4999 171.682 78.4606 171.703 79.4214Z" fill="#FEBD9D"/>
<path d="M163.942 45.4941C164.25 42.4112 156.616 40.1685 152.741 41.1252C148.867 42.0818 162.951 54.2676 163.942 45.4941Z" fill="#7F542D"/>
<path d="M144.052 43.9791C143.758 41.1926 137.536 47.0984 134.917 48.2153C132.298 49.3321 131.342 50.9652 133.757 53.8194C136.172 56.6737 144.711 49.9567 144.052 43.9791Z" fill="#7F542D"/>
<path d="M144.248 61.0186C145.545 61.0186 146.597 59.9672 146.597 58.6702C146.597 57.3732 145.545 56.3218 144.248 56.3218C142.951 56.3218 141.9 57.3732 141.9 58.6702C141.9 59.9672 142.951 61.0186 144.248 61.0186Z" fill="#683F1D"/>
<path d="M160.837 55.1048C162.134 55.1048 163.185 54.0534 163.185 52.7564C163.185 51.4594 162.134 50.408 160.837 50.408C159.54 50.408 158.488 51.4594 158.488 52.7564C158.488 54.0534 159.54 55.1048 160.837 55.1048Z" fill="#683F1D"/>
<path d="M153.747 51.4968C153.577 58.4994 156.95 60.9119 157.783 61.7231C159.683 63.5805 164.187 61.7231 162.052 68.5335" stroke="#F4A789" stroke-width="1.3023" stroke-linecap="round" stroke-linejoin="round"/>
<path d="M145.635 83.6439C148.667 86.6541 160.174 86.035 161.476 84.8394C162.779 83.6439 160.58 78.4346 155.584 78.4346C150.588 78.4346 144.226 82.2135 145.635 83.6439Z" fill="white" stroke="#F4A789" stroke-width="1.3023" stroke-linecap="round" stroke-linejoin="round"/>
<path d="M99.4785 68.1707C102.126 64.2851 107.634 65.5874 109.833 67.5302C102.724 66.356 102.062 74.2765 110.046 72.1843" stroke="#F4A789" stroke-width="1.3023" stroke-linecap="round" stroke-linejoin="round"/>
<path d="M146.404 75.3436C145.273 78.6527 139.359 79.6134 133.147 77.4785C126.934 75.3436 122.835 71.0737 123.945 67.7219C125.055 64.3701 130.99 63.452 137.182 65.587C143.373 67.7219 147.515 72.0344 146.404 75.3436Z" fill="#F4A789"/>
<path d="M171.511 76.4965C168.586 77.0515 166.152 76.4965 165.106 74.8953C163.334 72.2693 165.533 67.5938 170.102 64.0071C170.834 68.1364 171.304 72.3078 171.511 76.4965Z" fill="#F4A789"/>
<path d="M102.424 79.4214C102.42 80.4342 102.718 81.4253 103.279 82.2686C103.839 83.1118 104.639 83.769 105.574 84.1566C106.51 84.5441 107.54 84.6444 108.533 84.4447C109.526 84.245 110.437 83.7543 111.15 83.0351C111.863 82.3159 112.346 81.4008 112.537 80.4063C112.729 79.4117 112.62 78.3827 112.224 77.4503C111.829 76.5179 111.165 75.7242 110.317 75.1704C109.469 74.6166 108.475 74.3276 107.463 74.3403C106.124 74.3571 104.846 74.8992 103.904 75.8496C102.961 76.8001 102.43 78.0829 102.424 79.4214Z" fill="#A7CAF0"/>
<path d="M308.146 151.56L283.252 183.798C283.252 183.798 249.948 317.722 233.188 328.973C227.884 332.474 221.802 334.622 215.475 335.228C209.147 335.835 202.768 334.882 196.895 332.453C196.904 332.375 196.904 332.296 196.895 332.218C196.895 331.897 181.95 319.707 184.896 301.283C185.153 299.575 218.415 242.081 232.676 216.761C244.077 196.351 257.932 173.038 257.932 173.038L308.146 151.56Z" fill="#FEBD9D"/>
<path d="M257.954 173.08C257.954 173.08 259.897 142.829 260.58 139.434C261.263 136.039 281.694 116.377 284.598 114.818C287.501 113.26 305.606 118.618 307.079 120.262C308.552 121.906 306.887 125.813 302.019 125.514C297.151 125.215 301.336 137 301.336 137C301.336 137 309.214 145.326 308.039 151.56C308.039 151.56 277.51 182.325 277.126 182.218C276.741 182.111 257.954 173.08 257.954 173.08Z" fill="#FEBD9D"/>
<path d="M257.954 173.08C257.954 173.08 259.897 142.829 260.58 139.434C261.263 136.039 281.694 116.377 284.598 114.818C287.501 113.26 305.606 118.618 307.079 120.262C308.552 121.906 306.887 125.813 302.019 125.514C297.151 125.215 301.336 137 301.336 137C301.336 137 309.214 145.326 308.039 151.56C308.039 151.56 277.51 182.325 277.126 182.218C276.741 182.111 257.954 173.08 257.954 173.08Z" fill="#FEBD9D"/>
<path d="M260.58 139.434C261.178 135.975 281.694 116.377 284.662 114.818C287.63 113.26 305.67 118.618 307.143 120.262C308.616 121.906 306.951 125.813 302.083 125.514" stroke="#F4A789" stroke-width="1.3023" stroke-linecap="round" stroke-linejoin="round"/>
<path d="M289.764 126.988C290.042 126.305 301.442 122.504 303.385 123.188C305.328 123.871 314.657 139.434 314.956 142.53C315.255 145.626 310.815 159.311 306.78 158.094C302.745 156.877 306.95 145.284 306.95 145.284L289.764 126.988Z" fill="#FEBD9D" stroke="#F4A789" stroke-width="1.3023" stroke-linecap="round" stroke-linejoin="round"/>
<path d="M297.642 153.93C300.929 156.065 304.772 151.069 306.95 145.39L299.606 139.327C299.606 139.327 292.774 150.706 297.642 153.93Z" fill="#FEBD9D" stroke="#F4A789" stroke-width="1.3023" stroke-linecap="round" stroke-linejoin="round"/>
<path d="M308.701 140.907L311.092 146.885C311.163 147.061 311.184 147.254 311.153 147.441C311.122 147.629 311.041 147.804 310.918 147.949C310.795 148.094 310.635 148.202 310.455 148.263C310.276 148.324 310.082 148.335 309.897 148.294L303.599 146.97L251.037 102.671C250.64 102.336 250.312 101.926 250.074 101.465C249.835 101.003 249.69 100.5 249.646 99.982C249.603 99.4644 249.662 98.9433 249.82 98.4485C249.978 97.9537 250.232 97.4949 250.567 97.0985C251.244 96.2917 252.213 95.7868 253.262 95.6947C254.311 95.6026 255.354 95.9309 256.161 96.6074L308.701 140.907Z" fill="#683F1D"/>
<path d="M274.691 138.217C280.605 129.677 287.095 122.974 290.255 122.205C295.016 121.052 296.083 126.689 284.896 143.021C286.713 147.68 286.995 152.798 285.701 157.629C284.407 162.459 281.604 166.751 277.702 169.878" fill="#FEBD9D"/>
<path d="M274.691 138.217C280.605 129.677 287.095 122.974 290.255 122.205C295.016 121.052 296.083 126.689 284.896 143.021C286.713 147.68 286.995 152.798 285.701 157.629C284.407 162.459 281.604 166.751 277.702 169.878" stroke="#F4A789" stroke-width="1.3023" stroke-linecap="round" stroke-linejoin="round"/>
<path d="M226.72 238.452C226.357 240.16 223.688 245.07 223.304 246.757C215.533 279.763 202.552 311.68 196.916 332.368C195.334 338.369 194.059 344.447 193.095 350.578C190.255 367.871 189.359 384.139 189.359 384.139L61.4978 381.748L46.0195 381.471L46.6173 316.078L46.7454 302.329C46.7454 302.329 10.1955 299.81 9.91793 300.557C9.64039 301.304 11.6899 280.574 11.6899 280.574C-0.287011 266.825 -1.11963 246.693 1.93331 234.567C3.91879 226.454 12.0529 204.678 20.4004 186.339C23.7371 178.661 27.648 171.246 32.0998 164.157C42.6037 148.614 49.1792 147.44 62.8855 144.622C76.5917 141.804 100.033 129.464 100.033 129.464L144.397 124.49C144.397 124.49 167.625 126.112 188.334 125.237C208.018 124.404 219.077 128.845 227.723 146.971C228.171 147.91 228.641 148.913 229.089 149.959C235.494 164.904 241.216 186.104 244.034 197.077C235.153 218.298 226.72 238.452 226.72 238.452Z" fill="#FED81D"/>
<path d="M227.723 146.864C209.576 144.9 198.239 159.951 184.917 188.474C169.012 222.441 134.32 227.116 101.1 200.494C71.8303 177.009 50.3743 171.48 20.3999 186.232C23.7366 178.555 27.6475 171.14 32.0993 164.05C42.6031 148.508 49.1787 147.334 62.8849 144.516C76.5912 141.698 100.033 129.358 100.033 129.358L144.396 124.383C144.396 124.383 167.624 126.006 188.333 125.131C208.017 124.298 219.076 128.739 227.723 146.864Z" fill="#FED81D"/>
<path d="M65.1704 292.872L77.0406 217.103C80.3497 222.184 89.4659 229.229 86.5197 243.555C79.0261 279.742 104.026 251.091 113.761 268.491C117.796 275.664 83.6375 287.556 65.1704 292.872Z" fill="#FCC71F"/>
<path d="M108.509 124.148C105.072 122.654 99.9692 127.564 99.9692 129.358C99.9692 131.151 105.008 146.821 111.733 154.187C118.458 161.552 130.712 163.111 135.366 145.903C147.792 158.841 159.939 153.973 158.253 138.239C156.566 122.505 145.443 119.473 145.443 119.473L108.509 124.148Z" fill="white"/>
<path d="M64.103 299.703L65.1705 292.871L77.0407 217.039L80.7555 193.341" stroke="#FCC71F" stroke-width="1.3023" stroke-linecap="round" stroke-linejoin="round"/>
<path d="M11.6895 280.468C29.8468 274.635 49.0279 272.685 67.9875 274.746" stroke="#FCC71F" stroke-width="1.3023" stroke-linecap="round" stroke-linejoin="round"/>
<path d="M142.24 171.224C144.869 171.224 147.001 169.092 147.001 166.463C147.001 163.833 144.869 161.702 142.24 161.702C139.611 161.702 137.479 163.833 137.479 166.463C137.479 169.092 139.611 171.224 142.24 171.224Z" fill="white"/>
<path d="M147.023 191.206C149.652 191.206 151.784 189.075 151.784 186.445C151.784 183.816 149.652 181.684 147.023 181.684C144.394 181.684 142.262 183.816 142.262 186.445C142.262 189.075 144.394 191.206 147.023 191.206Z" fill="white"/>
<path d="M22.0655 347.334C1.97589 340.417 8.16718 309.588 10.4942 293.47L32.9323 288.047L67.3046 279.763C67.3046 279.763 73.133 355.382 22.0655 347.334Z" fill="#FEBD9D"/>
<path d="M148.624 108.905C148.624 109.332 148.325 117.295 148.112 123.017C148.112 125.536 147.92 127.628 147.877 128.418C147.749 131.066 142.134 142.082 130.392 139.093C118.65 136.104 108.787 126.006 108.488 124.148C108.189 122.291 113.569 107.069 110.623 83.8837C120.956 71.9281 150.973 79.4217 148.624 108.905Z" fill="#FEBD9D"/>
<path d="M148.624 108.884C148.624 108.884 148.325 117.124 148.09 123.017C140.02 121.907 124.606 117.124 125.567 96.4584C128.961 101.518 140.575 109.247 148.624 108.884Z" fill="#F4A789"/>
<path d="M246.66 228.332C246.53 228.324 246.403 228.287 246.289 228.224C246.175 228.161 246.075 228.074 245.998 227.969L206.993 172.568C206.922 172.467 206.872 172.352 206.846 172.231C206.82 172.11 206.82 171.985 206.843 171.864C206.873 171.747 206.925 171.637 206.999 171.541C207.072 171.446 207.165 171.367 207.27 171.308C209.734 169.74 212.554 168.822 215.468 168.64C221.873 168.64 228.278 174.532 237.65 188.986C255.114 215.8 249.499 225.664 247.364 228.033C247.282 228.128 247.18 228.203 247.066 228.255C246.952 228.306 246.828 228.333 246.702 228.332H246.66Z" fill="#F9F9F9"/>
<path d="M215.47 169.494C221 169.494 227.02 174.276 236.819 189.477C251.337 211.787 250.355 223.273 246.597 227.457L207.806 172.056C210.133 170.549 212.81 169.667 215.577 169.494H215.47ZM215.577 167.765C212.542 167.954 209.604 168.909 207.037 170.54C206.827 170.664 206.645 170.83 206.502 171.027C206.358 171.224 206.256 171.449 206.202 171.686C206.148 171.924 206.143 172.17 206.188 172.41C206.232 172.65 206.325 172.878 206.461 173.081L245.466 228.461C245.622 228.676 245.823 228.855 246.055 228.984C246.288 229.113 246.546 229.189 246.811 229.208C247.056 229.21 247.3 229.159 247.524 229.06C247.749 228.961 247.949 228.814 248.113 228.631C250.248 226.134 256.29 215.822 238.485 188.516C228.877 173.764 222.238 167.765 215.577 167.765Z" fill="#DDDDDD"/>
<path d="M262.694 238.452C262.529 238.452 262.367 238.408 262.224 238.324L246.234 228.204C246.124 228.125 246.033 228.023 245.967 227.905C245.901 227.787 245.861 227.656 245.849 227.521C245.84 227.39 245.86 227.259 245.908 227.137C245.956 227.015 246.031 226.906 246.127 226.817C247.871 225.215 250.164 224.344 252.532 224.383C254.311 224.445 256.058 224.878 257.661 225.654C259.263 226.43 260.687 227.531 261.84 228.887C266.281 233.798 263.569 238.068 263.527 238.11C263.432 238.237 263.304 238.336 263.158 238.396C263.011 238.456 262.851 238.476 262.694 238.452Z" fill="#F9F9F9"/>
<path d="M252.425 225.258C254.086 225.331 255.715 225.749 257.207 226.484C258.699 227.219 260.022 228.255 261.093 229.528C265.128 233.99 262.694 237.683 262.694 237.683L246.703 227.5C248.282 226.107 250.32 225.347 252.425 225.365V225.258ZM252.425 223.614C249.883 223.606 247.43 224.55 245.55 226.261C245.349 226.442 245.191 226.667 245.091 226.919C244.991 227.171 244.951 227.443 244.974 227.713C244.997 227.979 245.081 228.236 245.217 228.465C245.354 228.695 245.541 228.89 245.764 229.037L261.755 239.22C262.038 239.392 262.362 239.488 262.694 239.498C262.983 239.5 263.268 239.428 263.522 239.29C263.776 239.152 263.99 238.952 264.146 238.708C264.295 238.494 267.263 233.819 262.395 228.418C261.169 226.947 259.648 225.751 257.931 224.905C256.213 224.059 254.338 223.583 252.425 223.507V223.614Z" fill="#DDDDDD"/>
<path d="M123.111 218.576L211.326 166.462C211.326 166.462 240.682 197.226 246.702 227.457L153.086 276.027C153.086 276.027 142.753 242.722 123.111 218.576Z" fill="#F9F9F9" stroke="#DDDDDD" stroke-width="1.75064" stroke-linecap="round" stroke-linejoin="round"/>
<path d="M157.506 273.742L180.051 280.467L262.651 237.641C258.255 232.964 252.758 229.463 246.661 227.457L157.506 273.742Z" fill="#DDDDDD" stroke="#DDDDDD" stroke-width="1.75064" stroke-miterlimit="10"/>
<path d="M199.052 245.796C198.198 249.767 190.192 250.706 185.281 250.386C180.371 250.066 163.932 251.027 163.932 251.027C163.932 251.027 172.984 255.916 173.945 256.834C176.889 261.209 179.176 265.992 180.734 271.031C183.104 278.332 181.332 282.709 178.941 282.175C176.549 281.641 175.717 277.905 175.717 277.905C174.884 282.794 171.853 278.738 171.853 278.738C171.853 280.296 164.359 293.682 161.327 290.928C158.296 288.174 162.544 281.449 162.544 281.449H159.449C153.761 286.179 147.762 290.523 141.494 294.451C135.744 297.796 129.449 300.102 122.899 301.261C122.899 301.261 108.424 311.509 90.1917 322.44C67.6896 335.975 39.4232 350.578 25.7383 348.315C22.1702 347.872 18.798 346.437 16.0052 344.172C13.2124 341.908 11.1109 338.905 9.93984 335.506C9.94896 335.399 9.94896 335.292 9.93984 335.185C9.93984 334.929 9.705 334.545 9.55556 334.054C7.42063 327.03 2.85189 296.885 67.1986 279.805L67.6042 279.699L113.655 268.341C123.262 258.541 144.632 239.477 148.155 238.452C151.678 237.427 199.884 241.825 199.052 245.796Z" fill="#FEBD9D"/>
<path d="M162.63 281.364C162.63 281.364 158.36 288.132 161.413 290.843C164.466 293.555 171.938 280.169 171.938 278.653C171.938 278.653 174.97 282.709 175.802 277.82C175.802 277.82 176.635 281.663 179.026 282.197C181.417 282.731 183.189 278.333 180.798 271.031C179.266 265.993 176.985 261.214 174.03 256.855C173.091 255.916 164.018 251.027 164.018 251.027C164.018 251.027 180.371 250.087 185.367 250.386C190.363 250.685 198.305 249.767 199.137 245.796C199.97 241.825 151.806 237.47 148.262 238.516C146.49 239.029 140.256 244.067 133.317 250.194" stroke="#F4A789" stroke-width="1.3023" stroke-linecap="round" stroke-linejoin="round"/>
<path d="M164.018 251.027L155.82 247.782" stroke="#F4A789" stroke-width="1.3023" stroke-linecap="round" stroke-linejoin="round"/>
<path d="M157.955 258.669C157.955 258.669 171.042 264.284 171.938 266.206C173.814 269.856 175.117 273.773 175.803 277.82" stroke="#F4A789" stroke-width="1.3023" stroke-linecap="round" stroke-linejoin="round"/>
<path d="M159.427 268.341C159.427 268.341 169.141 274.34 170.315 275.514C171.115 276.446 171.672 277.561 171.938 278.759" stroke="#F4A789" stroke-width="1.3023" stroke-linecap="round" stroke-linejoin="round"/>
</svg>
