<svg width="435" height="330" viewBox="0 0 435 330" fill="none" xmlns="http://www.w3.org/2000/svg">
<mask id="mask0_601_3063" style="mask-type:alpha" maskUnits="userSpaceOnUse" x="44" y="57" width="389" height="271">
<rect width="388" height="271" transform="matrix(-1 0 0 1 432.538 57)" fill="#C4C4C4"/>
</mask>
<g mask="url(#mask0_601_3063)">
<path d="M126.275 320.941C117.93 325.113 107.107 317.297 95.0992 306.692L108.127 295.031C108.127 295.031 128.516 314.053 126.275 320.941Z" fill="#A7CAF0"/>
<path d="M15.0199 270.761L45.1568 332.146H108.492L119.06 302.665L83.2014 270.761H15.0199Z" fill="#FEBD9D"/>
<path d="M64.124 270.779C71.5215 282.368 83.7293 301.408 93.7871 317.151" stroke="#F4A789" stroke-width="1.36655" stroke-linecap="round" stroke-linejoin="round"/>
<path d="M75.4025 275.553C96.8846 287.834 126.274 320.94 126.274 320.94L134.146 336.61L138.737 345.72H294.614C298.259 332.583 301.393 315.493 303.725 301.627C305.547 290.876 306.713 282.094 307.187 278.669C307.332 277.667 307.387 277.102 307.387 277.102C311.359 280.618 313.291 280.746 313.291 280.746L320.579 300.005L321.253 301.827C347.126 284.517 394.463 281.438 394.463 281.438L388.104 259.956C390.013 255.546 390.547 250.663 389.635 245.944C388.596 240.478 374.348 215.625 359.99 194.726C354.292 186.216 347.97 178.14 341.077 170.566C340.512 169.983 339.929 169.436 339.255 168.89C321.927 152.965 293.211 155.261 274.353 156.992C271.547 157.228 268.887 157.429 266.391 157.538C260.819 157.822 255.236 157.822 249.664 157.538C245.091 157.301 242.558 156.955 242.558 156.955C241.993 154.295 241.429 151.489 240.9 148.41C237.475 128.494 235.562 101.892 238.604 84.4189L190.666 105.828C189.828 114.556 186.621 133.651 184.416 146.241C183.195 153.256 182.284 158.267 182.284 158.267C178.44 157.556 174.778 156.919 171.352 156.317C122.685 148.063 110.131 151.179 96.6476 174.902C96.3015 175.54 95.937 176.196 95.5909 176.87C87.264 193.269 81.6157 226.066 78.4453 249.242C76.4228 264.438 75.4025 275.553 75.4025 275.553Z" fill="#A7CAF0"/>
<path d="M75.4027 275.553C96.4839 287.597 125.181 319.701 126.256 320.904C125.855 320.102 119.588 307.129 119.059 302.683C118.531 298.238 120.626 285.101 124.088 272.711L78.5366 249.297C76.423 264.438 75.4027 275.553 75.4027 275.553Z" fill="#A7CAF0"/>
<path d="M237.602 282.659C237.967 300.115 278.854 302.574 303.652 301.609C305.474 290.858 306.64 282.076 307.114 278.651C307.26 277.649 307.314 277.084 307.314 277.084C298.296 267.934 290.842 257.365 285.249 245.799C270.673 255.766 289.367 265.987 290.078 270.761C292.009 283.916 237.11 257.661 237.602 282.659Z" fill="#A7CAF0"/>
<path d="M95.6093 176.907C109.821 171.987 125.783 172.133 136.824 189.807C161.732 229.564 208.486 260.576 255.258 213.639C261.648 207.053 268.652 201.092 276.175 195.838C303.816 176.907 327.193 180.751 359.881 194.763C354.219 186.244 347.934 178.156 341.077 170.566C340.512 169.983 339.929 169.436 339.255 168.89C321.927 152.965 293.212 155.261 274.353 156.992C271.547 157.228 268.887 157.429 266.391 157.538C260.819 157.822 255.236 157.822 249.664 157.538C245.091 157.301 242.558 156.955 242.558 156.955C241.994 154.295 241.429 151.489 240.9 148.41C237.475 128.494 235.562 101.892 238.605 84.4189L190.666 105.828C189.828 114.556 186.621 133.651 184.416 146.241C183.196 153.256 182.285 158.267 182.285 158.267C178.44 157.556 174.778 156.919 171.352 156.317C122.685 148.063 110.131 151.179 96.6478 174.902C96.3199 175.577 95.9554 176.232 95.6093 176.907Z" fill="#A7CAF0"/>
<path d="M171.39 156.354C171.535 168.689 172.865 191.119 178.222 207.007C185.146 227.596 193.309 219.233 202.273 211.089C210.4 203.709 239.954 179.093 266.483 157.538C260.911 157.822 255.328 157.822 249.756 157.538C245.183 157.301 242.65 156.955 242.65 156.955C242.086 154.295 241.521 151.489 240.992 148.41C221.715 147.134 198.629 145.913 184.508 146.241C183.288 153.256 182.377 158.267 182.377 158.267C178.532 157.593 174.87 156.955 171.39 156.354Z" fill="#83ADDF"/>
<path d="M190.247 203.363C190.247 203.363 231.28 175.467 249.756 157.502C245.182 157.265 242.65 156.919 242.65 156.919C238.259 136.748 235.198 104.516 238.696 84.3824L207.539 98.3029L190.758 105.792C190.138 112.242 188.207 124.431 186.385 135.418C184.326 147.535 182.376 158.231 182.376 158.231C180.882 193.633 190.247 203.363 190.247 203.363Z" fill="#FEBD9D"/>
<path d="M126.275 320.941C125.874 320.139 119.606 307.166 119.078 302.72C118.549 298.274 120.645 285.137 124.107 272.747L124.653 270.816" stroke="#83ADDF" stroke-width="1.36655" stroke-linecap="round" stroke-linejoin="round"/>
<path d="M186.384 135.491C218.689 137.441 215.045 102.694 214.826 101.783L207.538 98.3757L190.757 105.864C190.138 112.26 188.206 124.504 186.384 135.491Z" fill="#F4A789"/>
<path d="M394.335 281.475C395.246 284.153 395.246 287.069 374.93 292.79L371.778 279.416C371.778 279.416 390.272 274.423 394.335 281.475Z" fill="#A7CAF0"/>
<path d="M383.203 274.423C387.977 290.002 404.631 342.113 404.631 342.113C409.149 361.208 352.483 373.707 332.295 341.238L321.199 289C339.53 277.047 361.467 271.89 383.203 274.423Z" fill="#FEBD9D"/>
<path d="M290.023 254.617L290.205 254.945C292.611 258.79 295.271 262.707 298.186 266.752C298.259 266.833 298.325 266.918 298.387 267.007C301.115 270.577 304.099 273.945 307.315 277.083C311.287 280.6 313.218 280.728 313.218 280.728L321.126 301.791C321.928 301.244 322.766 300.734 323.622 300.205C338.035 291.478 357.895 286.667 372.818 284.117C377.719 283.278 382.092 282.677 385.572 282.295C390.929 281.657 394.245 281.438 394.245 281.438L387.886 259.956C389.795 255.546 390.329 250.663 389.417 245.944C388.378 240.478 374.13 215.625 359.772 194.726C354.144 186.223 347.895 178.148 341.077 170.566C340.513 169.983 339.93 169.436 339.255 168.889C314.694 157.41 282.771 160.235 276.485 193.36C276.34 194.18 276.176 195.018 276.066 195.838C272.55 217.83 277.998 235.34 290.023 254.617Z" fill="#A7CAF0"/>
<path d="M276.158 195.838C303.798 176.907 327.176 180.751 359.863 194.763C354.208 186.244 347.929 178.156 341.078 170.566C340.513 169.983 339.93 169.436 339.256 168.889C314.694 157.411 282.772 160.235 276.486 193.36C276.431 194.253 276.267 195.018 276.158 195.838Z" fill="#A7CAF0"/>
<path d="M377.901 264.493C360.792 264.493 344.047 271.49 341.223 272.838" stroke="#83ADDF" stroke-width="1.36655" stroke-linecap="round" stroke-linejoin="round"/>
<path d="M307.314 277.083C304.099 273.945 301.115 270.577 298.386 267.007C298.325 266.918 298.258 266.833 298.186 266.752C295.31 262.967 292.645 259.025 290.205 254.945L290.023 254.617C288.074 251.356 286.488 248.349 285.249 245.799C284.265 243.831 283.427 242.154 283.026 240.934" stroke="#83ADDF" stroke-width="1.36655" stroke-linecap="round" stroke-linejoin="round"/>
<path d="M159.218 261.887C158.544 270.488 163.627 272.692 163.627 272.692C162.935 293.646 169.094 303.667 179.334 306.328C189.574 308.988 216.012 314.618 216.012 314.618C218.76 315.726 221.411 317.061 223.938 318.608L234.87 324.985C248.007 332.693 268.724 339.853 293.34 352.845C336.96 375.839 368.044 363.376 370.14 338.961C373.893 294.32 317.154 291.405 296.437 287.943C281.442 285.41 258.174 279.47 243.78 276.136C239.982 275.173 236.139 274.4 232.264 273.822C225.322 273.221 210.965 265.641 185.765 257.697C160.566 249.753 140.214 245.179 140.214 250.755C140.214 256.33 159.218 261.887 159.218 261.887Z" fill="#FEBD9D"/>
<path d="M185.747 257.66C160.584 249.698 140.196 245.143 140.196 250.718C140.196 256.294 159.291 261.887 159.291 261.887C158.617 270.488 163.7 272.692 163.7 272.692C163.008 293.646 169.166 303.667 179.406 306.327" stroke="#F4A789" stroke-width="1.36655" stroke-linecap="round" stroke-linejoin="round"/>
<path d="M359.553 308.642C348.62 298.074 331.11 293.5 316.315 290.913" stroke="#F4A789" stroke-width="1.36655" stroke-linecap="round" stroke-linejoin="round"/>
<path d="M223.938 318.608L234.87 324.985C245.001 313.689 250.266 296.16 243.78 276.099C239.983 275.136 236.139 274.364 232.264 273.785C236.984 286.649 237.84 307.603 223.938 318.608Z" fill="#683F1D"/>
<path d="M159.217 261.887L174.778 266.916" stroke="#F4A789" stroke-width="1.36655" stroke-linecap="round" stroke-linejoin="round"/>
<path d="M163.627 272.692L173.192 276.173" stroke="#F4A789" stroke-width="1.36655" stroke-linecap="round" stroke-linejoin="round"/>
<path d="M172.154 286.249L164.01 284.026" stroke="#F4A789" stroke-width="1.36655" stroke-linecap="round" stroke-linejoin="round"/>
<path d="M227.599 299.695C227.599 302.301 228.372 304.848 229.819 307.014C231.267 309.18 233.324 310.869 235.732 311.866C238.139 312.863 240.787 313.124 243.343 312.615C245.898 312.107 248.246 310.853 250.088 309.01C251.93 307.168 253.185 304.821 253.693 302.265C254.201 299.71 253.941 297.061 252.943 294.654C251.946 292.247 250.258 290.189 248.092 288.742C245.925 287.294 243.378 286.522 240.773 286.522C237.279 286.522 233.928 287.91 231.458 290.38C228.987 292.851 227.599 296.201 227.599 299.695Z" fill="white" stroke="#683F1D" stroke-width="1.82206" stroke-linecap="round" stroke-linejoin="round"/>
</g>
<path d="M45.1563 55.776V327.81H433V55.776C432.976 48.5158 430.074 41.5616 424.93 36.4381C419.786 31.3147 412.82 28.4402 405.56 28.4451H72.4872C65.2386 28.4451 58.2869 31.3246 53.1613 36.4501C48.0358 41.5756 45.1563 48.5274 45.1563 55.776V55.776Z" stroke="#DDDDDD" stroke-width="3.64412" stroke-linecap="round" stroke-linejoin="round"/>
<path d="M45.1563 55.776V57.015H433V55.776C432.976 48.5158 430.074 41.5616 424.93 36.4381C419.786 31.3147 412.82 28.4402 405.56 28.4451H72.4872C65.2386 28.4451 58.2869 31.3246 53.1613 36.4501C48.0358 41.5756 45.1563 48.5274 45.1563 55.776V55.776Z" stroke="#DDDDDD" stroke-width="3.64412" stroke-linecap="round" stroke-linejoin="round"/>
<path d="M97.6314 42.712C97.6278 43.7001 97.9175 44.6672 98.4639 45.4906C99.0102 46.314 99.7887 46.9567 100.701 47.3373C101.613 47.718 102.617 47.8195 103.587 47.6289C104.556 47.4383 105.447 46.9643 106.147 46.2668C106.848 45.5693 107.325 44.6798 107.519 43.7109C107.713 42.7419 107.615 41.7372 107.238 40.8239C106.861 39.9106 106.221 39.1298 105.399 38.5804C104.578 38.031 103.612 37.7377 102.624 37.7377C101.303 37.7377 100.036 38.2612 99.1 39.1935C98.1643 40.1259 97.6362 41.391 97.6314 42.712Z" fill="#DDDDDD"/>
<path d="M86.3532 47.7044C83.596 47.7044 81.3608 45.4692 81.3608 42.7119C81.3608 39.9547 83.596 37.7195 86.3532 37.7195C89.1105 37.7195 91.3457 39.9547 91.3457 42.7119C91.3457 45.4692 89.1105 47.7044 86.3532 47.7044Z" fill="#DDDDDD"/>
<path d="M65.0894 42.712C65.0858 43.7001 65.3755 44.6672 65.9219 45.4906C66.4683 46.314 67.2467 46.9567 68.1586 47.3373C69.0705 47.718 70.0749 47.8195 71.0446 47.6289C72.0142 47.4383 72.9055 46.9643 73.6055 46.2668C74.3055 45.5693 74.7828 44.6798 74.9769 43.7109C75.1711 42.7419 75.0733 41.7372 74.6959 40.8239C74.3186 39.9106 73.6787 39.1298 72.8573 38.5804C72.0359 38.031 71.07 37.7377 70.0818 37.7377C68.7609 37.7377 67.4938 38.2612 66.558 39.1935C65.6223 40.1259 65.0942 41.391 65.0894 42.712Z" fill="#DDDDDD"/>
<path d="M139.247 281.22C133.015 274.606 122.611 273.786 122.611 273.786L110.586 286.249C110.586 286.249 107.142 249.498 122.611 199.063C125.563 223.679 134.6 263.309 139.247 281.22Z" fill="#DDDDDD" stroke="#DDDDDD" stroke-width="1.82206" stroke-linecap="round" stroke-linejoin="round"/>
<path d="M20.4118 191.592C3.01112 246.801 3.84921 286.339 3.84921 286.339H110.586C110.586 286.339 124.943 231.55 122.611 199.154C122.611 199.154 124.634 191.519 117.947 190.863C111.26 190.207 20.4118 191.592 20.4118 191.592Z" fill="#F9F9F9" stroke="#DDDDDD" stroke-width="1.82206" stroke-linecap="round" stroke-linejoin="round"/>
<path d="M105.921 191.064C105.93 190.906 105.93 190.748 105.921 190.59C105.763 189.122 105.183 187.73 104.251 186.583C103.319 185.437 102.075 184.585 100.669 184.13C99.2637 183.675 97.7563 183.636 96.3293 184.019C94.9023 184.402 93.6167 185.19 92.6277 186.288C91.6386 187.385 90.9885 188.746 90.7557 190.205C90.5229 191.664 90.7175 193.159 91.3159 194.51C91.9143 195.861 92.891 197.01 94.128 197.818C95.365 198.625 96.8095 199.058 98.287 199.063" stroke="#DDDDDD" stroke-width="1.82206" stroke-linecap="round" stroke-linejoin="round"/>
<path d="M51.7148 191.064C51.5224 189.603 50.9134 188.229 49.9608 187.106C49.0081 185.982 47.7521 185.156 46.3428 184.728C44.9335 184.299 43.4304 184.285 42.0134 184.687C40.5963 185.09 39.3252 185.892 38.3518 186.998C37.3785 188.104 36.7441 189.466 36.5245 190.923C36.305 192.38 36.5095 193.869 37.1136 195.212C37.7178 196.556 38.6961 197.697 39.9315 198.499C41.1669 199.302 42.6073 199.731 44.0804 199.737C45.3588 199.74 46.6155 199.407 47.7245 198.771" stroke="#DDDDDD" stroke-width="1.82206" stroke-linecap="round" stroke-linejoin="round"/>
<path d="M84.147 190.736C84.0719 188.736 83.25 186.837 81.8434 185.414C80.4368 183.99 78.5477 183.146 76.549 183.047C74.4585 183.284 72.5285 184.283 71.1272 185.852C69.7259 187.422 68.9514 189.452 68.9514 191.556C68.9514 193.66 69.7259 195.69 71.1272 197.26C72.5285 198.829 74.4585 199.828 76.549 200.065C78.2674 200.041 79.9186 199.394 81.1952 198.243" stroke="#DDDDDD" stroke-width="1.82206" stroke-linecap="round" stroke-linejoin="round"/>
<path d="M67.8945 190.918C67.7054 189.459 67.0997 188.086 66.15 186.962C65.2003 185.838 63.9469 185.012 62.5398 184.583C61.1327 184.153 59.6316 184.138 58.2163 184.54C56.801 184.942 55.5315 185.743 54.5597 186.847C53.588 187.952 52.9552 189.313 52.7372 190.768C52.5192 192.223 52.7252 193.71 53.3306 195.051C53.9359 196.392 54.915 197.53 56.1504 198.328C57.3859 199.127 58.8254 199.553 60.2965 199.555" stroke="#DDDDDD" stroke-width="1.82206" stroke-linecap="round" stroke-linejoin="round"/>
<path d="M26.1333 209.357H100.911V217.903H26.1333V209.357Z" stroke="#DDDDDD" stroke-width="1.82206" stroke-linecap="round" stroke-linejoin="round"/>
<path d="M82.3805 276.938L83.328 269.74L88.1565 232.68L88.9399 226.594" stroke="#DDDDDD" stroke-width="1.82206" stroke-linecap="round" stroke-linejoin="round"/>
<path d="M58.1105 276.938L59.1309 269.212L63.8136 233.172L64.6699 226.594" stroke="#DDDDDD" stroke-width="1.82206" stroke-linecap="round" stroke-linejoin="round"/>
<path d="M40.3999 226.594L33.8405 276.938" stroke="#DDDDDD" stroke-width="1.82206" stroke-linecap="round" stroke-linejoin="round"/>
<path d="M25.3313 236.652H63.3577H87.6276H98.2866" stroke="#DDDDDD" stroke-width="1.82206" stroke-linecap="round" stroke-linejoin="round"/>
<path d="M21.6326 258.662H60.4971H84.767H94.5879" stroke="#DDDDDD" stroke-width="1.82206" stroke-linecap="round" stroke-linejoin="round"/>
<path d="M80.7038 228.325C92.7658 234.484 98.5782 260.175 78.1165 261.888C47.9614 264.402 46.522 227.269 72.9418 230.749" fill="#F9F9F9"/>
<path d="M80.7038 228.325C92.7658 234.484 98.5782 260.175 78.1165 261.888C47.9614 264.402 46.522 227.269 72.9418 230.749" stroke="#DDDDDD" stroke-width="3.64412" stroke-linecap="round" stroke-linejoin="round"/>
<path d="M60.497 258.662H84.7668L87.6274 236.652H63.3576L60.497 258.662Z" fill="#DDDDDD"/>
<path d="M16.9134 255.328C16.4033 263.71 0.514885 254.49 1.5899 247.165C2.66492 239.841 17.4965 245.653 16.9134 255.328Z" fill="#FEBD9D" stroke="#F4A789" stroke-width="1.36655" stroke-linecap="round" stroke-linejoin="round"/>
<path d="M19.6463 244.086C19.0632 252.449 1.17063 243.248 2.35497 235.923C3.53931 228.599 20.2658 234.338 19.6463 244.086Z" fill="#FEBD9D" stroke="#F4A789" stroke-width="1.36655" stroke-linecap="round" stroke-linejoin="round"/>
<path d="M20.8486 235.668C20.2291 244.049 1.04282 234.848 2.30004 227.505C3.55726 220.162 21.5774 225.993 20.8486 235.668Z" fill="#FEBD9D" stroke="#F4A789" stroke-width="1.36655" stroke-linecap="round" stroke-linejoin="round"/>
<path d="M23.5641 225.319C22.9081 232.899 3.12061 224.554 4.41427 217.903C5.70793 211.253 24.2929 216.537 23.5641 225.319Z" fill="#FEBD9D" stroke="#F4A789" stroke-width="1.36655" stroke-linecap="round" stroke-linejoin="round"/>
<path d="M80.7038 228.325C92.7658 234.484 98.5782 260.175 78.1165 261.888C47.9614 264.402 46.522 227.269 72.9418 230.749" stroke="#DDDDDD" stroke-width="3.64412" stroke-linecap="round" stroke-linejoin="round"/>
<path d="M152.658 33.3646C154.225 46.5381 171.862 54.2636 171.862 54.2636L220.803 96.9181C225.813 104.935 239.479 108.944 247.787 102.275C252.634 98.3757 255.677 90.796 254.019 78.2237C255.387 78.2235 256.725 77.8177 257.863 77.0576C263.475 73.5775 266.974 62.4811 258.519 49.3076C259.121 49.8907 270.363 60.8413 281.951 57.5434C283.931 57.007 285.773 56.0552 287.357 54.7515C288.94 53.4477 290.228 51.8218 291.134 49.9818C294.778 42.5114 293.503 30.1031 283.117 13.0669C275.719 0.913727 265.425 -1.27274 256.588 0.986611C246.621 3.53749 238.531 11.755 238.531 17.7131C236.35 15.0096 233.82 12.6078 231.006 10.5706C227.107 7.874 222.278 6.01549 217.96 8.63926C217.96 8.63926 202.782 0.476435 194.128 5.5782C183.377 11.919 185.746 16.3466 175.288 17.039C167.526 17.5309 155.336 19.4987 153.004 28.3175C152.56 29.9611 152.442 31.6758 152.658 33.3646Z" fill="#B25E47"/>
<path d="M238.622 17.713L258.482 49.2711C259.898 50.6009 261.415 51.8193 263.019 52.9152C267.447 56.0674 274.735 59.6204 282.023 57.5979C283.994 57.0462 285.826 56.0819 287.397 54.7689C288.967 53.4559 290.241 51.8241 291.133 49.9817C268.503 49.4897 260.559 43.1672 265.205 30.7225C269.524 19.1342 273.988 4.59418 256.587 0.986496C249.817 2.71061 243.94 6.91058 240.116 12.757C239.198 14.2521 238.683 15.9596 238.622 17.713Z" fill="#B25E47"/>
<path d="M152.658 33.3644C154.225 46.5379 171.862 54.2634 171.862 54.2634L220.803 96.9179C225.814 104.935 239.479 108.943 247.788 102.275C250.661 95.3845 251.366 87.7825 249.81 80.4812C248.254 73.18 244.511 66.5261 239.078 61.4059C229.039 52.2956 236.4 45.4993 235.434 33.492C234.468 21.4846 212.531 3.06355 196.806 19.6261C184.507 32.6174 161.331 16.893 152.913 28.3173C152.499 29.9669 152.413 31.6815 152.658 33.3644Z" fill="#B25E47"/>
<path d="M182.685 120.532C204.659 118.291 226.961 95.4969 226.961 95.4969C235.361 105.026 251.869 90.7778 243.688 78.8979C238.331 71.0813 229.949 75.7093 227.927 79.9912C224.521 77.8013 222.023 74.4527 220.894 70.5642C219.765 66.6757 220.082 62.5101 221.786 58.837C223.573 54.3228 224.344 49.4707 224.046 44.625C216.612 33.31 196.897 30.7227 196.897 30.7227C193.985 33.7926 190.444 36.1963 186.515 37.7688C182.587 39.3414 178.365 40.0455 174.139 39.833C174.139 39.833 167.38 53.0429 161.877 66.4533L161.494 67.3825C159.946 71.2088 158.506 75.0169 157.376 78.5335C157.285 78.8797 157.176 79.1895 157.085 79.5174C156.163 82.2755 155.492 85.1112 155.081 87.99C153.295 102.457 160.729 122.81 182.685 120.532Z" fill="#FEBD9D"/>
<path d="M173.574 60.4587C173.578 60.9315 173.441 61.3948 173.181 61.7897C172.921 62.1846 172.549 62.4934 172.113 62.6769C171.678 62.8603 171.197 62.9102 170.733 62.8202C170.269 62.7301 169.842 62.5043 169.506 62.1712C169.17 61.8381 168.941 61.4128 168.848 60.9493C168.754 60.4858 168.8 60.005 168.98 59.5678C169.16 59.1305 169.466 58.7567 169.859 58.4936C170.252 58.2305 170.714 58.09 171.187 58.09C171.817 58.09 172.422 58.339 172.869 58.7827C173.316 59.2264 173.569 59.8288 173.574 60.4587V60.4587Z" fill="#683F1D"/>
<path d="M185.746 65.1962C184.437 65.1962 183.377 64.1357 183.377 62.8275C183.377 61.5193 184.437 60.4588 185.746 60.4588C187.054 60.4588 188.114 61.5193 188.114 62.8275C188.114 64.1357 187.054 65.1962 185.746 65.1962Z" fill="#683F1D"/>
<path d="M172.264 87.3336C177.42 86.0585 182.813 86.0908 187.953 87.4277C187.953 87.4277 188.916 78.5479 180.951 79.1555C174.04 79.6467 172.264 87.3336 172.264 87.3336Z" fill="white" stroke="#F4A789" stroke-width="1.36655" stroke-linecap="round" stroke-linejoin="round"/>
<path d="M196.059 55.8669C195.167 58.8004 184.234 55.8669 185.419 51.1296C186.603 46.3922 197.298 51.7308 196.059 55.8669Z" fill="#B25E47"/>
<path d="M177.438 50.0364C177.62 53.2067 166.506 53.4072 166.506 50.6923C166.506 47.9774 177.147 44.8435 177.438 50.0364Z" fill="#B25E47"/>
<path d="M254.037 78.2237C252.675 69.2542 248.329 61.0056 241.702 54.8102" stroke="#683F1D" stroke-width="1.36655" stroke-linecap="round" stroke-linejoin="round"/>
<path d="M217.961 8.63905C221.404 11.3904 226.561 20.3185 228.565 24.3634" stroke="#683F1D" stroke-width="1.36655" stroke-linecap="round" stroke-linejoin="round"/>
<path d="M221.021 33.3647C216.958 22.5416 209.141 17.6767 205.497 21.8128C201.853 25.9489 196.915 30.7227 196.915 30.7227" stroke="#683F1D" stroke-width="1.36655" stroke-linecap="round" stroke-linejoin="round"/>
<path d="M174.122 39.9239C169.566 39.76 165.248 35.0955 163.936 32.4171" stroke="#683F1D" stroke-width="1.36655" stroke-linecap="round" stroke-linejoin="round"/>
<path d="M265.279 47.3218C282.078 49.9456 290.369 25.0745 276.74 5.41443" stroke="#683F1D" stroke-width="1.36655" stroke-linecap="round" stroke-linejoin="round"/>
<path d="M248.443 24.3636C244.926 15.2533 256.679 0.549263 263.11 10.6435C270.399 22.1771 259.776 37.5189 248.534 36.1523" stroke="#683F1D" stroke-width="1.36655" stroke-linecap="round" stroke-linejoin="round"/>
<path d="M258.465 49.2714C254.443 37.3293 247.642 26.5131 238.623 17.7133C238.623 17.7133 243.706 28.0626 239.971 35.4238C246.451 39.6024 252.631 44.2296 258.465 49.2714Z" fill="#FED81D"/>
<path d="M241.702 86.7512C238.331 80.7748 232.427 81.1028 229.348 86.1317" stroke="#F4A789" stroke-width="1.36655" stroke-linecap="round" stroke-linejoin="round"/>
<path d="M230.568 84.4551C237.565 82.633 237.565 92.0167 230.149 90.6683" stroke="#F4A789" stroke-width="1.36655" stroke-linecap="round" stroke-linejoin="round"/>
<path d="M179.897 58.7457C179.988 64.2119 175.633 67.3458 172.736 68.8399C169.839 70.334 170.805 74.4154 170.914 74.9074" stroke="#F4A789" stroke-width="1.36655" stroke-linecap="round" stroke-linejoin="round"/>
<path d="M226.961 95.4968C225.831 94.0648 224.894 92.4904 224.174 90.8142" stroke="#F4A789" stroke-width="1.36655" stroke-linecap="round" stroke-linejoin="round"/>
<path d="M195.385 77.0939C197.207 80.5376 202.819 81.1936 208.139 78.5334C213.46 75.8732 216.266 70.9354 214.516 67.4735C212.767 64.0115 207.101 63.3738 201.762 66.0158C196.423 68.6578 193.654 73.632 195.385 77.0939Z" fill="#F4A789"/>
<path d="M157.084 79.6084C158.226 80.1288 159.491 80.3176 160.734 80.1533C161.978 79.989 163.15 79.4781 164.117 78.6791C166.759 76.0371 165.757 70.6621 161.876 66.5442L161.494 67.4734C159.945 71.2998 158.506 75.1079 157.376 78.6245C157.285 78.9706 157.175 79.2804 157.084 79.6084Z" fill="#F4A789"/>
<circle cx="309.161" cy="96.1684" r="17.5" transform="rotate(26.6681 309.161 96.1684)" fill="#A7CAF0"/>
<ellipse cx="311.262" cy="107.055" rx="8.5" ry="18.5" transform="rotate(46.4647 311.262 107.055)" fill="#A7CAF0"/>
<ellipse cx="300.524" cy="104.684" rx="5.26319" ry="16.0184" transform="rotate(72.1301 300.524 104.684)" fill="white"/>
<circle cx="293.452" cy="127.445" r="5.5" transform="rotate(26.6681 293.452 127.445)" fill="#A7CAF0"/>
<circle cx="296.857" cy="99.5004" r="5" transform="rotate(26.6681 296.857 99.5004)" fill="#A7CAF0"/>
<circle cx="309.161" cy="96.1684" r="8.5" transform="rotate(26.6681 309.161 96.1684)" fill="white"/>
</svg>
