<svg id="visual" viewBox="0 0 320 60" width="320" height="60" xmlns="http://www.w3.org/2000/svg" xmlns:xlink="http://www.w3.org/1999/xlink" version="1.1"><rect x="0" y="0" width="320" height="60" fill="#ffffff"></rect><defs><linearGradient id="grad1_0" x1="81.3%" y1="0%" x2="100%" y2="100%"><stop offset="-56.66666666666666%" stop-color="#ffffff" stop-opacity="1"></stop><stop offset="156.66666666666669%" stop-color="#ffffff" stop-opacity="1"></stop></linearGradient></defs><defs><linearGradient id="grad2_0" x1="0%" y1="0%" x2="18.8%" y2="100%"><stop offset="-56.66666666666666%" stop-color="#ffffff" stop-opacity="1"></stop><stop offset="156.66666666666669%" stop-color="#ffffff" stop-opacity="1"></stop></linearGradient></defs><g transform="translate(320, 0)"><path d="M0 54C-9.9 52.9 -19.9 51.7 -27 46.8C-34.1 41.8 -38.4 32.9 -42.4 24.5C-46.5 16.1 -50.2 8 -54 0L0 0Z" fill="#ffb4ad"></path></g><g transform="translate(0, 60)"><path d="M0 -54C10.4 -53.1 20.8 -52.3 27 -46.8C33.2 -41.2 35.2 -31.1 39 -22.5C42.8 -13.9 48.4 -7 54 0L0 0Z" fill="#ffb4ad"></path></g></svg>