<svg id="visual" viewBox="0 0 320 150" width="320" height="150" xmlns="http://www.w3.org/2000/svg" xmlns:xlink="http://www.w3.org/1999/xlink" version="1.1"><rect x="0" y="0" width="320" height="150" fill="#fff"></rect><defs><linearGradient id="grad1_0" x1="53.1%" y1="100%" x2="100%" y2="0%"><stop offset="7.333333333333333%" stop-color="#ffffff" stop-opacity="1"></stop><stop offset="92.66666666666667%" stop-color="#ffffff" stop-opacity="1"></stop></linearGradient></defs><defs><linearGradient id="grad2_0" x1="0%" y1="100%" x2="46.9%" y2="0%"><stop offset="7.333333333333333%" stop-color="#ffffff" stop-opacity="1"></stop><stop offset="92.66666666666667%" stop-color="#ffffff" stop-opacity="1"></stop></linearGradient></defs><g transform="translate(320, 150)"><path d="M-97.5 0C-92.2 -10.9 -86.9 -21.9 -83.1 -34.4C-79.4 -47 -77.2 -61.3 -68.9 -68.9C-60.6 -76.6 -46.2 -77.6 -33.7 -81.3C-21.2 -85 -10.6 -91.2 0 -97.5L0 0Z" fill="#ed4535"></path></g><g transform="translate(0, 0)"><path d="M97.5 0C96.6 13.2 95.6 26.5 90.1 37.3C84.5 48.1 74.4 56.5 65.1 65.1C55.7 73.6 47.1 82.3 36.4 87.8C25.6 93.2 12.8 95.4 0 97.5L0 0Z" fill="#ed4535"></path></g></svg>