<svg id="visual" viewBox="0 0 320 55" width="320" height="55" xmlns="http://www.w3.org/2000/svg" xmlns:xlink="http://www.w3.org/1999/xlink" version="1.1"><rect x="0" y="0" width="320" height="55" fill="#fff"></rect><defs><linearGradient id="grad1_0" x1="82.8%" y1="100%" x2="100%" y2="0%"><stop offset="-66.36363636363636%" stop-color="#ffffff" stop-opacity="1"></stop><stop offset="166.36363636363632%" stop-color="#ffffff" stop-opacity="1"></stop></linearGradient></defs><defs><linearGradient id="grad2_0" x1="0%" y1="100%" x2="17.2%" y2="0%"><stop offset="-66.36363636363636%" stop-color="#ffffff" stop-opacity="1"></stop><stop offset="166.36363636363632%" stop-color="#ffffff" stop-opacity="1"></stop></linearGradient></defs><g transform="translate(320, 55)"><path d="M-52.2 0C-52 -7.2 -51.7 -14.5 -48.3 -20C-44.8 -25.5 -38.1 -29.3 -32.5 -32.5C-26.9 -35.7 -22.5 -38.4 -17.2 -41.6C-12 -44.8 -6 -48.5 0 -52.2L0 0Z" fill="#ed4535"></path></g><g transform="translate(0, 0)"><path d="M52.3 0C52 7.3 51.7 14.7 48.3 20C44.8 25.3 38.2 28.6 33.2 33.2C28.2 37.8 24.8 43.7 19.5 47.1C14.2 50.5 7.1 51.4 0 52.3L0 0Z" fill="#ed4535"></path></g></svg>