<svg width="300" height="300" viewBox="0 0 300 300" fill="none" xmlns="http://www.w3.org/2000/svg">
<path d="M300 300H30C13.4315 300 0 286.569 0 270V270C0 253.431 13.4315 240 30 240H300V300Z" fill="#FFE779"/>
<path d="M240 300L240 30C240 13.4315 253.431 0 270 0V0C286.569 0 300 13.4315 300 30L300 300H240Z" fill="#FFE779"/>
<path d="M0 0H270C286.569 0 300 13.4315 300 30V30C300 46.5685 286.569 60 270 60H0V0Z" fill="#F8AB5D"/>
<path d="M60 0L60 270C60 286.569 46.5685 300 30 300V300C13.4315 300 0 286.569 0 270L0 0L60 0Z" fill="#F8AB5D"/>
<path d="M0 0H300V30C300 46.5685 286.569 60 270 60H0V0Z" fill="#F8AB5D"/>
<path d="M0 125H180V155C180 171.569 166.569 185 150 185H0V125Z" fill="#F8AB5D"/>
<path d="M60 0L60 270C60 286.569 46.5685 300 30 300H0L0 0L60 0Z" fill="#F8AB5D"/>
<path d="M134.04 280.091C134.04 284.215 133.258 287.723 131.695 290.616C130.143 293.509 128.026 295.719 125.342 297.246C122.671 298.76 119.667 299.517 116.331 299.517C112.97 299.517 109.954 298.754 107.283 297.227C104.611 295.701 102.5 293.491 100.949 290.598C99.3977 287.705 98.6222 284.203 98.6222 280.091C98.6222 275.967 99.3977 272.458 100.949 269.565C102.5 266.672 104.611 264.469 107.283 262.955C109.954 261.428 112.97 260.665 116.331 260.665C119.667 260.665 122.671 261.428 125.342 262.955C128.026 264.469 130.143 266.672 131.695 269.565C133.258 272.458 134.04 275.967 134.04 280.091ZM125.933 280.091C125.933 277.42 125.533 275.167 124.733 273.332C123.945 271.498 122.831 270.107 121.391 269.159C119.95 268.211 118.264 267.737 116.331 267.737C114.398 267.737 112.712 268.211 111.271 269.159C109.831 270.107 108.711 271.498 107.911 273.332C107.123 275.167 106.729 277.42 106.729 280.091C106.729 282.762 107.123 285.015 107.911 286.849C108.711 288.684 109.831 290.075 111.271 291.023C112.712 291.971 114.398 292.445 116.331 292.445C118.264 292.445 119.95 291.971 121.391 291.023C122.831 290.075 123.945 288.684 124.733 286.849C125.533 285.015 125.933 282.762 125.933 280.091ZM139.963 299V261.182H154.883C157.739 261.182 160.177 261.693 162.196 262.714C164.227 263.724 165.772 265.158 166.831 267.017C167.902 268.864 168.437 271.036 168.437 273.536C168.437 276.047 167.895 278.207 166.812 280.017C165.729 281.814 164.159 283.193 162.103 284.153C160.06 285.114 157.585 285.594 154.68 285.594H144.69V279.168H153.387C154.914 279.168 156.182 278.958 157.191 278.54C158.201 278.121 158.952 277.493 159.444 276.656C159.949 275.819 160.201 274.779 160.201 273.536C160.201 272.28 159.949 271.221 159.444 270.359C158.952 269.498 158.195 268.845 157.173 268.402C156.163 267.946 154.889 267.719 153.35 267.719H147.958V299H139.963ZM160.386 281.79L169.785 299H160.958L151.762 281.79H160.386ZM174.088 261.182H183.949L194.363 286.591H194.806L205.221 261.182H215.082V299H207.326V274.385H207.012L197.225 298.815H191.944L182.157 274.293H181.843V299H174.088V261.182ZM221.522 299V270.636H229.388V299H221.522ZM225.474 266.98C224.304 266.98 223.301 266.592 222.464 265.817C221.639 265.029 221.227 264.087 221.227 262.991C221.227 261.908 221.639 260.979 222.464 260.203C223.301 259.415 224.304 259.021 225.474 259.021C226.643 259.021 227.64 259.415 228.465 260.203C229.302 260.979 229.721 261.908 229.721 262.991C229.721 264.087 229.302 265.029 228.465 265.817C227.64 266.592 226.643 266.98 225.474 266.98ZM235.431 299V294.254L254.304 267.774H235.395V261.182H264.349V265.928L245.458 292.408H264.386V299H235.431ZM270.521 299V261.182H296.004V267.774H278.517V276.786H294.693V283.378H278.517V292.408H296.078V299H270.521Z" fill="white"/>
</svg>
