<svg id="visual" viewBox="0 0 960 540" width="960" height="540" xmlns="http://www.w3.org/2000/svg" xmlns:xlink="http://www.w3.org/1999/xlink" version="1.1"><path d="M0 163L22.8 159.3C45.7 155.7 91.3 148.3 137 145.7C182.7 143 228.3 145 274 150.5C319.7 156 365.3 165 411.2 159.5C457 154 503 134 548.8 133C594.7 132 640.3 150 686 161.8C731.7 173.7 777.3 179.3 823 170.3C868.7 161.3 914.3 137.7 937.2 125.8L960 114L960 0L937.2 0C914.3 0 868.7 0 823 0C777.3 0 731.7 0 686 0C640.3 0 594.7 0 548.8 0C503 0 457 0 411.2 0C365.3 0 319.7 0 274 0C228.3 0 182.7 0 137 0C91.3 0 45.7 0 22.8 0L0 0Z" fill="#bc8941"></path><path d="M0 217L22.8 217C45.7 217 91.3 217 137 217C182.7 217 228.3 217 274 219.7C319.7 222.3 365.3 227.7 411.2 223.2C457 218.7 503 204.3 548.8 205.3C594.7 206.3 640.3 222.7 686 231.7C731.7 240.7 777.3 242.3 823 232.3C868.7 222.3 914.3 200.7 937.2 189.8L960 179L960 112L937.2 123.8C914.3 135.7 868.7 159.3 823 168.3C777.3 177.3 731.7 171.7 686 159.8C640.3 148 594.7 130 548.8 131C503 132 457 152 411.2 157.5C365.3 163 319.7 154 274 148.5C228.3 143 182.7 141 137 143.7C91.3 146.3 45.7 153.7 22.8 157.3L0 161Z" fill="#f7c06d"></path><path d="M0 330L22.8 326.5C45.7 323 91.3 316 137 316C182.7 316 228.3 323 274 328.3C319.7 333.7 365.3 337.3 411.2 332C457 326.7 503 312.3 548.8 311.5C594.7 310.7 640.3 323.3 686 330.5C731.7 337.7 777.3 339.3 823 332.2C868.7 325 914.3 309 937.2 301L960 293L960 177L937.2 187.8C914.3 198.7 868.7 220.3 823 230.3C777.3 240.3 731.7 238.7 686 229.7C640.3 220.7 594.7 204.3 548.8 203.3C503 202.3 457 216.7 411.2 221.2C365.3 225.7 319.7 220.3 274 217.7C228.3 215 182.7 215 137 215C91.3 215 45.7 215 22.8 215L0 215Z" fill="#fad091"></path><path d="M0 465L22.8 464.2C45.7 463.3 91.3 461.7 137 462.7C182.7 463.7 228.3 467.3 274 470C319.7 472.7 365.3 474.3 411.2 473.3C457 472.3 503 468.7 548.8 466.8C594.7 465 640.3 465 686 466.8C731.7 468.7 777.3 472.3 823 472.3C868.7 472.3 914.3 468.7 937.2 466.8L960 465L960 291L937.2 299C914.3 307 868.7 323 823 330.2C777.3 337.3 731.7 335.7 686 328.5C640.3 321.3 594.7 308.7 548.8 309.5C503 310.3 457 324.7 411.2 330C365.3 335.3 319.7 331.7 274 326.3C228.3 321 182.7 314 137 314C91.3 314 45.7 321 22.8 324.5L0 328Z" fill="#f7c06d"></path><path d="M0 541L22.8 541C45.7 541 91.3 541 137 541C182.7 541 228.3 541 274 541C319.7 541 365.3 541 411.2 541C457 541 503 541 548.8 541C594.7 541 640.3 541 686 541C731.7 541 777.3 541 823 541C868.7 541 914.3 541 937.2 541L960 541L960 463L937.2 464.8C914.3 466.7 868.7 470.3 823 470.3C777.3 470.3 731.7 466.7 686 464.8C640.3 463 594.7 463 548.8 464.8C503 466.7 457 470.3 411.2 471.3C365.3 472.3 319.7 470.7 274 468C228.3 465.3 182.7 461.7 137 460.7C91.3 459.7 45.7 461.3 22.8 462.2L0 463Z" fill="#bc8941"></path></svg>