<svg id="visual" viewBox="0 0 960 540" width="960" height="540" xmlns="http://www.w3.org/2000/svg" xmlns:xlink="http://www.w3.org/1999/xlink" version="1.1"><rect x="0" y="0" width="960" height="540" fill="#ffffff"></rect><defs><linearGradient id="grad1_0" x1="43.8%" y1="0%" x2="100%" y2="100%"><stop offset="14.444444444444446%" stop-color="#ffffff" stop-opacity="1"></stop><stop offset="85.55555555555554%" stop-color="#ffffff" stop-opacity="1"></stop></linearGradient></defs><defs><linearGradient id="grad2_0" x1="0%" y1="0%" x2="56.3%" y2="100%"><stop offset="14.444444444444446%" stop-color="#ffffff" stop-opacity="1"></stop><stop offset="85.55555555555554%" stop-color="#ffffff" stop-opacity="1"></stop></linearGradient></defs><g transform="translate(960, 0)"><path d="M0 216C-11.8 201.4 -23.6 186.7 -36.1 181.4C-48.6 176.2 -61.7 180.3 -74.6 180.2C-87.6 180 -100.3 175.6 -114.4 171.3C-128.5 167 -144 162.8 -152.7 152.7C-161.5 142.7 -163.6 126.7 -171.3 114.4C-178.9 102.2 -192.1 93.8 -197.7 81.9C-203.3 70 -201.2 54.6 -203 40.4C-204.8 26.2 -210.4 13.1 -216 0L0 0Z" fill="#b4bcb7"></path></g><g transform="translate(0, 540)"><path d="M0 -216C13.4 -211.6 26.8 -207.2 40.4 -203C54 -198.9 67.8 -195 76.5 -184.8C85.3 -174.5 89.1 -157.9 102.8 -153.8C116.5 -149.7 140.1 -158.2 152.7 -152.7C165.4 -147.3 167.2 -127.9 167.1 -111.7C167.1 -95.4 165.2 -82.3 172.8 -71.6C180.3 -60.8 197.2 -52.5 206 -41C214.7 -29.4 215.4 -14.7 216 0L0 0Z" fill="#b4bcb7"></path></g></svg>