<svg id="visual" viewBox="0 0 960 540" width="960" height="540" xmlns="http://www.w3.org/2000/svg" xmlns:xlink="http://www.w3.org/1999/xlink" version="1.1"><path d="M0 98L26.7 98C53.3 98 106.7 98 160 100.7C213.3 103.3 266.7 108.7 320 101.5C373.3 94.3 426.7 74.7 480 70.2C533.3 65.7 586.7 76.3 640 72.7C693.3 69 746.7 51 800 47.5C853.3 44 906.7 55 933.3 60.5L960 66L960 0L933.3 0C906.7 0 853.3 0 800 0C746.7 0 693.3 0 640 0C586.7 0 533.3 0 480 0C426.7 0 373.3 0 320 0C266.7 0 213.3 0 160 0C106.7 0 53.3 0 26.7 0L0 0Z" fill="#949c97"></path><path d="M0 141L26.7 144.7C53.3 148.3 106.7 155.7 160 156.7C213.3 157.7 266.7 152.3 320 140.7C373.3 129 426.7 111 480 112.8C533.3 114.7 586.7 136.3 640 141.7C693.3 147 746.7 136 800 128.7C853.3 121.3 906.7 117.7 933.3 115.8L960 114L960 64L933.3 58.5C906.7 53 853.3 42 800 45.5C746.7 49 693.3 67 640 70.7C586.7 74.3 533.3 63.7 480 68.2C426.7 72.7 373.3 92.3 320 99.5C266.7 106.7 213.3 101.3 160 98.7C106.7 96 53.3 96 26.7 96L0 96Z" fill="#bac1bc"></path><path d="M0 271L26.7 262.8C53.3 254.7 106.7 238.3 160 232C213.3 225.7 266.7 229.3 320 233C373.3 236.7 426.7 240.3 480 240.3C533.3 240.3 586.7 236.7 640 229.5C693.3 222.3 746.7 211.7 800 202.7C853.3 193.7 906.7 186.3 933.3 182.7L960 179L960 112L933.3 113.8C906.7 115.7 853.3 119.3 800 126.7C746.7 134 693.3 145 640 139.7C586.7 134.3 533.3 112.7 480 110.8C426.7 109 373.3 127 320 138.7C266.7 150.3 213.3 155.7 160 154.7C106.7 153.7 53.3 146.3 26.7 142.7L0 139Z" fill="#cbd1cd"></path><path d="M0 417L26.7 420.5C53.3 424 106.7 431 160 416.5C213.3 402 266.7 366 320 353.5C373.3 341 426.7 352 480 352C533.3 352 586.7 341 640 339.2C693.3 337.3 746.7 344.7 800 363.7C853.3 382.7 906.7 413.3 933.3 428.7L960 444L960 177L933.3 180.7C906.7 184.3 853.3 191.7 800 200.7C746.7 209.7 693.3 220.3 640 227.5C586.7 234.7 533.3 238.3 480 238.3C426.7 238.3 373.3 234.7 320 231C266.7 227.3 213.3 223.7 160 230C106.7 236.3 53.3 252.7 26.7 260.8L0 269Z" fill="#bac1bc"></path><path d="M0 541L26.7 541C53.3 541 106.7 541 160 541C213.3 541 266.7 541 320 541C373.3 541 426.7 541 480 541C533.3 541 586.7 541 640 541C693.3 541 746.7 541 800 541C853.3 541 906.7 541 933.3 541L960 541L960 442L933.3 426.7C906.7 411.3 853.3 380.7 800 361.7C746.7 342.7 693.3 335.3 640 337.2C586.7 339 533.3 350 480 350C426.7 350 373.3 339 320 351.5C266.7 364 213.3 400 160 414.5C106.7 429 53.3 422 26.7 418.5L0 415Z" fill="#949c97"></path></svg>