<svg id="visual" viewBox="0 0 900 600" width="900" height="600" xmlns="http://www.w3.org/2000/svg" xmlns:xlink="http://www.w3.org/1999/xlink" version="1.1"><path d="M0 49L13.7 49C27.3 49 54.7 49 82 49C109.3 49 136.7 49 163.8 48C191 47 218 45 245.2 43C272.3 41 299.7 39 327 46C354.3 53 381.7 69 409 77C436.3 85 463.7 85 491 84C518.3 83 545.7 81 573 74C600.3 67 627.7 55 654.8 52C682 49 709 55 736.2 55C763.3 55 790.7 49 818 49C845.3 49 872.7 55 886.3 58L900 61L900 0L886.3 0C872.7 0 845.3 0 818 0C790.7 0 763.3 0 736.2 0C709 0 682 0 654.8 0C627.7 0 600.3 0 573 0C545.7 0 518.3 0 491 0C463.7 0 436.3 0 409 0C381.7 0 354.3 0 327 0C299.7 0 272.3 0 245.2 0C218 0 191 0 163.8 0C136.7 0 109.3 0 82 0C54.7 0 27.3 0 13.7 0L0 0Z" fill="#ffdda9"></path><path d="M0 121L13.7 131C27.3 141 54.7 161 82 157C109.3 153 136.7 125 163.8 113C191 101 218 105 245.2 115C272.3 125 299.7 141 327 153C354.3 165 381.7 173 409 177C436.3 181 463.7 181 491 179C518.3 177 545.7 173 573 166C600.3 159 627.7 149 654.8 143C682 137 709 135 736.2 128C763.3 121 790.7 109 818 110C845.3 111 872.7 125 886.3 132L900 139L900 59L886.3 56C872.7 53 845.3 47 818 47C790.7 47 763.3 53 736.2 53C709 53 682 47 654.8 50C627.7 53 600.3 65 573 72C545.7 79 518.3 81 491 82C463.7 83 436.3 83 409 75C381.7 67 354.3 51 327 44C299.7 37 272.3 39 245.2 41C218 43 191 45 163.8 46C136.7 47 109.3 47 82 47C54.7 47 27.3 47 13.7 47L0 47Z" fill="#ffebcc"></path><path d="M0 271L13.7 276C27.3 281 54.7 291 82 278C109.3 265 136.7 229 163.8 224C191 219 218 245 245.2 253C272.3 261 299.7 251 327 255C354.3 259 381.7 277 409 288C436.3 299 463.7 303 491 298C518.3 293 545.7 279 573 277C600.3 275 627.7 285 654.8 289C682 293 709 291 736.2 271C763.3 251 790.7 213 818 211C845.3 209 872.7 243 886.3 260L900 277L900 137L886.3 130C872.7 123 845.3 109 818 108C790.7 107 763.3 119 736.2 126C709 133 682 135 654.8 141C627.7 147 600.3 157 573 164C545.7 171 518.3 175 491 177C463.7 179 436.3 179 409 175C381.7 171 354.3 163 327 151C299.7 139 272.3 123 245.2 113C218 103 191 99 163.8 111C136.7 123 109.3 151 82 155C54.7 159 27.3 139 13.7 129L0 119Z" fill="#fff0da"></path><path d="M0 517L13.7 507C27.3 497 54.7 477 82 466C109.3 455 136.7 453 163.8 454C191 455 218 459 245.2 446C272.3 433 299.7 403 327 405C354.3 407 381.7 441 409 445C436.3 449 463.7 423 491 414C518.3 405 545.7 413 573 419C600.3 425 627.7 429 654.8 422C682 415 709 397 736.2 396C763.3 395 790.7 411 818 432C845.3 453 872.7 479 886.3 492L900 505L900 275L886.3 258C872.7 241 845.3 207 818 209C790.7 211 763.3 249 736.2 269C709 289 682 291 654.8 287C627.7 283 600.3 273 573 275C545.7 277 518.3 291 491 296C463.7 301 436.3 297 409 286C381.7 275 354.3 257 327 253C299.7 249 272.3 259 245.2 251C218 243 191 217 163.8 222C136.7 227 109.3 263 82 276C54.7 289 27.3 279 13.7 274L0 269Z" fill="#ffebcc"></path><path d="M0 601L13.7 601C27.3 601 54.7 601 82 601C109.3 601 136.7 601 163.8 601C191 601 218 601 245.2 601C272.3 601 299.7 601 327 601C354.3 601 381.7 601 409 601C436.3 601 463.7 601 491 601C518.3 601 545.7 601 573 601C600.3 601 627.7 601 654.8 601C682 601 709 601 736.2 601C763.3 601 790.7 601 818 601C845.3 601 872.7 601 886.3 601L900 601L900 503L886.3 490C872.7 477 845.3 451 818 430C790.7 409 763.3 393 736.2 394C709 395 682 413 654.8 420C627.7 427 600.3 423 573 417C545.7 411 518.3 403 491 412C463.7 421 436.3 447 409 443C381.7 439 354.3 405 327 403C299.7 401 272.3 431 245.2 444C218 457 191 453 163.8 452C136.7 451 109.3 453 82 464C54.7 475 27.3 495 13.7 505L0 515Z" fill="#ffdda9"></path></svg>