<svg id="visual" viewBox="0 0 900 600" width="900" height="600" xmlns="http://www.w3.org/2000/svg" xmlns:xlink="http://www.w3.org/1999/xlink" version="1.1"><path d="M0 25L25 24C50 23 100 21 150 23C200 25 250 31 300 33C350 35 400 33 450 31C500 29 550 27 600 25C650 23 700 21 750 23C800 25 850 31 875 34L900 37L900 0L875 0C850 0 800 0 750 0C700 0 650 0 600 0C550 0 500 0 450 0C400 0 350 0 300 0C250 0 200 0 150 0C100 0 50 0 25 0L0 0Z" fill="#59a291"></path><path d="M0 97L25 106C50 115 100 133 150 138C200 143 250 135 300 132C350 129 400 131 450 127C500 123 550 113 600 113C650 113 700 123 750 126C800 129 850 125 875 123L900 121L900 35L875 32C850 29 800 23 750 21C700 19 650 21 600 23C550 25 500 27 450 29C400 31 350 33 300 31C250 29 200 23 150 21C100 19 50 21 25 22L0 23Z" fill="#6cbcaa"></path><path d="M0 133L25 141C50 149 100 165 150 169C200 173 250 165 300 164C350 163 400 169 450 166C500 163 550 151 600 148C650 145 700 151 750 152C800 153 850 149 875 147L900 145L900 119L875 121C850 123 800 127 750 124C700 121 650 111 600 111C550 111 500 121 450 125C400 129 350 127 300 130C250 133 200 141 150 136C100 131 50 113 25 104L0 95Z" fill="#7fd7c4"></path><path d="M0 157L25 164C50 171 100 185 150 190C200 195 250 191 300 191C350 191 400 195 450 192C500 189 550 179 600 176C650 173 700 177 750 179C800 181 850 181 875 181L900 181L900 143L875 145C850 147 800 151 750 150C700 149 650 143 600 146C550 149 500 161 450 164C400 167 350 161 300 162C250 163 200 171 150 167C100 163 50 147 25 139L0 131Z" fill="#94dece"></path><path d="M0 187L25 194C50 201 100 215 150 223C200 231 250 233 300 238C350 243 400 251 450 246C500 241 550 223 600 220C650 217 700 229 750 233C800 237 850 233 875 231L900 229L900 179L875 179C850 179 800 179 750 177C700 175 650 171 600 174C550 177 500 187 450 190C400 193 350 189 300 189C250 189 200 193 150 188C100 183 50 169 25 162L0 155Z" fill="#a8e4d8"></path><path d="M0 325L25 338C50 351 100 377 150 382C200 387 250 371 300 361C350 351 400 347 450 348C500 349 550 355 600 357C650 359 700 357 750 359C800 361 850 367 875 370L900 373L900 227L875 229C850 231 800 235 750 231C700 227 650 215 600 218C550 221 500 239 450 244C400 249 350 241 300 236C250 231 200 229 150 221C100 213 50 199 25 192L0 185Z" fill="#a8e4d8"></path><path d="M0 385L25 397C50 409 100 433 150 436C200 439 250 421 300 412C350 403 400 403 450 408C500 413 550 423 600 425C650 427 700 421 750 418C800 415 850 415 875 415L900 415L900 371L875 368C850 365 800 359 750 357C700 355 650 357 600 355C550 353 500 347 450 346C400 345 350 349 300 359C250 369 200 385 150 380C100 375 50 349 25 336L0 323Z" fill="#a8e4d8"></path><path d="M0 421L25 432C50 443 100 465 150 465C200 465 250 443 300 435C350 427 400 433 450 440C500 447 550 455 600 455C650 455 700 447 750 442C800 437 850 435 875 434L900 433L900 413L875 413C850 413 800 413 750 416C700 419 650 425 600 423C550 421 500 411 450 406C400 401 350 401 300 410C250 419 200 437 150 434C100 431 50 407 25 395L0 383Z" fill="#94dece"></path><path d="M0 511L25 516C50 521 100 531 150 531C200 531 250 521 300 516C350 511 400 511 450 514C500 517 550 523 600 525C650 527 700 525 750 525C800 525 850 527 875 528L900 529L900 431L875 432C850 433 800 435 750 440C700 445 650 453 600 453C550 453 500 445 450 438C400 431 350 425 300 433C250 441 200 463 150 463C100 463 50 441 25 430L0 419Z" fill="#7fd7c4"></path><path d="M0 553L25 555C50 557 100 561 150 563C200 565 250 565 300 565C350 565 400 565 450 567C500 569 550 573 600 571C650 569 700 561 750 560C800 559 850 565 875 568L900 571L900 527L875 526C850 525 800 523 750 523C700 523 650 525 600 523C550 521 500 515 450 512C400 509 350 509 300 514C250 519 200 529 150 529C100 529 50 519 25 514L0 509Z" fill="#6cbcaa"></path><path d="M0 601L25 601C50 601 100 601 150 601C200 601 250 601 300 601C350 601 400 601 450 601C500 601 550 601 600 601C650 601 700 601 750 601C800 601 850 601 875 601L900 601L900 569L875 566C850 563 800 557 750 558C700 559 650 567 600 569C550 571 500 567 450 565C400 563 350 563 300 563C250 563 200 563 150 561C100 559 50 555 25 553L0 551Z" fill="#59a291"></path></svg>