<svg width="1800" height="380" viewBox="0 0 1800 380" fill="none" xmlns="http://www.w3.org/2000/svg">
<rect width="1800" height="380" fill="white"/>
<path d="M419 340H149C132.431 340 119 326.569 119 310V310C119 293.431 132.431 280 149 280H419V340Z" fill="#FFE779"/>
<path d="M359 340L359 70C359 53.4315 372.431 40 389 40V40C405.569 40 419 53.4315 419 70L419 340H359Z" fill="#FFE779"/>
<path d="M119 40H389C405.569 40 419 53.4315 419 70V70C419 86.5685 405.569 100 389 100H119V40Z" fill="#F8AB5D"/>
<path d="M179 40L179 310C179 326.569 165.569 340 149 340V340C132.431 340 119 326.569 119 310L119 40L179 40Z" fill="#F8AB5D"/>
<path d="M119 40H419V70C419 86.5685 405.569 100 389 100H119V40Z" fill="#F8AB5D"/>
<path d="M119 165H299V195C299 211.569 285.569 225 269 225H119V165Z" fill="#F8AB5D"/>
<path d="M179 40L179 310C179 326.569 165.569 340 149 340H119L119 40L179 40Z" fill="#F8AB5D"/>
<path d="M253.04 318.091C253.04 322.215 252.258 325.723 250.695 328.616C249.143 331.509 247.026 333.719 244.342 335.246C241.671 336.76 238.667 337.517 235.331 337.517C231.97 337.517 228.954 336.754 226.283 335.227C223.611 333.701 221.5 331.491 219.949 328.598C218.398 325.705 217.622 322.203 217.622 318.091C217.622 313.967 218.398 310.458 219.949 307.565C221.5 304.672 223.611 302.469 226.283 300.955C228.954 299.428 231.97 298.665 235.331 298.665C238.667 298.665 241.671 299.428 244.342 300.955C247.026 302.469 249.143 304.672 250.695 307.565C252.258 310.458 253.04 313.967 253.04 318.091ZM244.933 318.091C244.933 315.42 244.533 313.167 243.733 311.332C242.945 309.498 241.831 308.107 240.391 307.159C238.95 306.211 237.264 305.737 235.331 305.737C233.398 305.737 231.712 306.211 230.271 307.159C228.831 308.107 227.711 309.498 226.911 311.332C226.123 313.167 225.729 315.42 225.729 318.091C225.729 320.762 226.123 323.015 226.911 324.849C227.711 326.684 228.831 328.075 230.271 329.023C231.712 329.971 233.398 330.445 235.331 330.445C237.264 330.445 238.95 329.971 240.391 329.023C241.831 328.075 242.945 326.684 243.733 324.849C244.533 323.015 244.933 320.762 244.933 318.091ZM258.963 337V299.182H273.883C276.739 299.182 279.177 299.693 281.196 300.714C283.227 301.724 284.772 303.158 285.831 305.017C286.902 306.864 287.437 309.036 287.437 311.536C287.437 314.047 286.895 316.207 285.812 318.017C284.729 319.814 283.159 321.193 281.103 322.153C279.06 323.114 276.585 323.594 273.68 323.594H263.69V317.168H272.387C273.914 317.168 275.182 316.958 276.191 316.54C277.201 316.121 277.952 315.493 278.444 314.656C278.949 313.819 279.201 312.779 279.201 311.536C279.201 310.28 278.949 309.221 278.444 308.359C277.952 307.498 277.195 306.845 276.173 306.402C275.163 305.946 273.889 305.719 272.35 305.719H266.958V337H258.963ZM279.386 319.79L288.785 337H279.958L270.762 319.79H279.386ZM293.088 299.182H302.949L313.363 324.591H313.806L324.221 299.182H334.082V337H326.326V312.385H326.012L316.225 336.815H310.944L301.157 312.293H300.843V337H293.088V299.182ZM340.522 337V308.636H348.388V337H340.522ZM344.474 304.98C343.304 304.98 342.301 304.592 341.464 303.817C340.639 303.029 340.227 302.087 340.227 300.991C340.227 299.908 340.639 298.979 341.464 298.203C342.301 297.415 343.304 297.021 344.474 297.021C345.643 297.021 346.64 297.415 347.465 298.203C348.302 298.979 348.721 299.908 348.721 300.991C348.721 302.087 348.302 303.029 347.465 303.817C346.64 304.592 345.643 304.98 344.474 304.98ZM354.431 337V332.254L373.304 305.774H354.395V299.182H383.349V303.928L364.458 330.408H383.386V337H354.431ZM389.521 337V299.182H415.004V305.774H397.517V314.786H413.693V321.378H397.517V330.408H415.078V337H389.521Z" fill="white"/>
<path d="M495.828 294.641C492.365 294.641 489.357 293.456 486.805 291.086C484.435 288.534 483.25 285.526 483.25 282.062V114.719C483.25 111.255 484.435 108.247 486.805 105.695C489.357 103.143 492.365 101.867 495.828 101.867H602.195C605.477 101.867 608.302 103.052 610.672 105.422C613.042 107.792 614.227 110.617 614.227 113.898C614.227 117.18 613.042 120.005 610.672 122.375C608.302 124.562 605.477 125.656 602.195 125.656H511.961C509.773 125.656 508.68 126.75 508.68 128.938V185.539H592.625C595.906 185.539 598.732 186.724 601.102 189.094C603.471 191.464 604.656 194.289 604.656 197.57C604.656 200.852 603.471 203.677 601.102 206.047C598.732 208.234 595.906 209.328 592.625 209.328H508.68V282.062C508.68 285.526 507.404 288.534 504.852 291.086C502.299 293.456 499.292 294.641 495.828 294.641ZM728.797 296.008C709.656 296.008 692.794 291.815 678.211 283.43C663.992 275.044 652.872 263.469 644.852 248.703C637.013 233.755 632.911 216.711 632.547 197.57C632.911 178.43 637.013 161.477 644.852 146.711C652.69 131.763 663.901 120.096 678.484 111.711C693.068 103.326 709.839 99.1328 728.797 99.1328C747.938 99.1328 764.799 103.326 779.383 111.711C793.602 120.096 804.63 131.763 812.469 146.711C820.49 161.659 824.682 178.612 825.047 197.57C824.682 216.529 820.581 233.391 812.742 248.156C804.721 263.286 793.419 275.044 778.836 283.43C764.435 291.815 747.755 296.008 728.797 296.008ZM728.797 272.219C743.562 272.219 756.141 268.938 766.531 262.375C777.104 255.995 785.216 247.245 790.867 236.125C796.701 224.823 799.617 211.971 799.617 197.57C799.617 183.352 796.792 170.591 791.141 159.289C785.307 147.805 777.013 138.872 766.258 132.492C755.503 126.112 743.016 122.922 728.797 122.922C714.031 122.922 701.453 126.203 691.062 132.766C680.49 139.146 672.286 147.987 666.453 159.289C660.802 170.409 657.977 183.169 657.977 197.57C657.977 211.789 660.802 224.549 666.453 235.852C672.286 247.518 680.49 256.542 691.062 262.922C701.818 269.12 714.396 272.219 728.797 272.219ZM981.727 207.141C993.576 210.604 1002.14 218.26 1007.43 230.109C1012.72 241.776 1015.36 254.901 1015.36 269.484V282.062C1015.36 285.526 1014.08 288.534 1011.53 291.086C1009.16 293.456 1006.24 294.641 1002.78 294.641C998.953 294.641 995.854 293.547 993.484 291.359C991.115 288.99 989.93 285.891 989.93 282.062V273.859C989.93 264.745 989.109 256.268 987.469 248.43C985.646 239.862 981.453 232.844 974.891 227.375C968.51 221.724 959.487 218.898 947.82 218.898H891.492V282.062C891.492 285.526 890.216 288.534 887.664 291.086C885.112 293.456 882.104 294.641 878.641 294.641C875.177 294.641 872.169 293.456 869.617 291.086C867.247 288.534 866.062 285.526 866.062 282.062V114.719C866.062 111.255 867.247 108.247 869.617 105.695C872.169 103.143 875.177 101.867 878.641 101.867H942.352C966.414 101.867 984.826 106.971 997.586 117.18C1010.53 127.206 1017 140.695 1017 157.648C1017 168.768 1013.9 178.794 1007.7 187.727C1001.69 196.659 993.029 203.13 981.727 207.141ZM940.711 194.836C956.57 194.836 968.966 191.737 977.898 185.539C987.013 179.159 991.57 170.5 991.57 159.562C991.57 148.26 987.469 139.875 979.266 134.406C971.245 128.755 957.938 125.93 939.344 125.93H894.773C892.586 125.93 891.492 127.023 891.492 129.211V194.836H940.711ZM1073.33 294.641C1069.86 294.641 1066.86 293.456 1064.3 291.086C1061.93 288.534 1060.75 285.526 1060.75 282.062V118.82C1060.75 113.898 1062.48 109.615 1065.95 105.969C1069.59 102.323 1073.88 100.5 1078.8 100.5H1087.82C1091.28 100.5 1094.57 101.594 1097.66 103.781C1100.76 105.786 1103.13 108.612 1104.77 112.258L1164.38 261.008C1164.93 262.284 1165.66 262.922 1166.57 262.922C1167.48 262.922 1168.21 262.284 1168.76 261.008L1228.37 112.258C1230.01 108.612 1232.38 105.786 1235.48 103.781C1238.58 101.594 1241.86 100.5 1245.32 100.5H1254.34C1259.27 100.5 1263.46 102.323 1266.92 105.969C1270.57 109.615 1272.39 113.898 1272.39 118.82V282.062C1272.39 285.526 1271.11 288.534 1268.56 291.086C1266.19 293.456 1263.28 294.641 1259.81 294.641C1256.35 294.641 1253.34 293.456 1250.79 291.086C1248.24 288.534 1246.96 285.526 1246.96 282.062V137.688C1246.96 136.047 1246.41 135.227 1245.32 135.227C1244.59 135.227 1243.95 135.773 1243.41 136.867L1184.34 282.883C1182.89 286.346 1180.52 289.172 1177.23 291.359C1173.95 293.547 1170.4 294.641 1166.57 294.641C1162.74 294.641 1159.19 293.547 1155.91 291.359C1152.62 289.172 1150.26 286.346 1148.8 282.883L1089.73 136.867C1089.19 135.773 1088.55 135.227 1087.82 135.227C1086.73 135.227 1086.18 136.047 1086.18 137.688V282.062C1086.18 285.526 1084.9 288.534 1082.35 291.086C1079.8 293.456 1076.79 294.641 1073.33 294.641ZM1329.27 125.383C1325.44 125.383 1322.07 124.016 1319.15 121.281C1316.41 118.365 1315.05 114.992 1315.05 111.164V110.07C1315.05 106.242 1316.41 102.961 1319.15 100.227C1322.07 97.3099 1325.44 95.8516 1329.27 95.8516H1330.91C1334.73 95.8516 1338.02 97.3099 1340.75 100.227C1343.67 102.961 1345.12 106.242 1345.12 110.07V111.164C1345.12 114.992 1343.67 118.365 1340.75 121.281C1338.02 124.016 1334.73 125.383 1330.91 125.383H1329.27ZM1329.81 294.641C1326.35 294.641 1323.34 293.456 1320.79 291.086C1318.42 288.534 1317.23 285.526 1317.23 282.062V164.758C1317.23 161.294 1318.42 158.286 1320.79 155.734C1323.34 153.182 1326.35 151.906 1329.81 151.906C1333.46 151.906 1336.47 153.182 1338.84 155.734C1341.39 158.104 1342.66 161.112 1342.66 164.758V282.062C1342.66 285.526 1341.39 288.534 1338.84 291.086C1336.28 293.456 1333.28 294.641 1329.81 294.641ZM1392.7 293.273C1388.33 293.273 1384.5 291.724 1381.22 288.625C1378.12 285.344 1376.57 281.516 1376.57 277.141C1376.57 273.13 1377.66 269.667 1379.85 266.75L1490.59 130.031C1491.32 129.302 1491.69 128.664 1491.69 128.117C1491.69 126.841 1490.78 126.203 1488.95 126.203H1389.15C1385.87 126.203 1383.04 125.018 1380.67 122.648C1378.3 120.279 1377.12 117.453 1377.12 114.172C1377.12 110.891 1378.3 108.065 1380.67 105.695C1383.04 103.143 1385.87 101.867 1389.15 101.867H1507.82C1512.74 101.867 1516.75 103.508 1519.85 106.789C1523.13 110.07 1524.77 114.172 1524.77 119.094C1524.77 122.74 1523.32 126.477 1520.4 130.305L1411.02 265.656C1410.29 266.385 1409.93 267.023 1409.93 267.57C1409.93 268.846 1410.84 269.484 1412.66 269.484H1514.38C1517.66 269.484 1520.49 270.669 1522.86 273.039C1525.23 275.409 1526.41 278.234 1526.41 281.516C1526.41 284.797 1525.23 287.622 1522.86 289.992C1520.49 292.18 1517.66 293.273 1514.38 293.273H1392.7ZM1577.27 293.273C1573.81 293.273 1570.8 292.089 1568.25 289.719C1565.88 287.167 1564.7 284.159 1564.7 280.695V114.719C1564.7 111.255 1565.88 108.247 1568.25 105.695C1570.8 103.143 1573.81 101.867 1577.27 101.867H1686.92C1690.2 101.867 1693.03 103.052 1695.4 105.422C1697.77 107.792 1698.95 110.617 1698.95 113.898C1698.95 117.18 1697.77 120.005 1695.4 122.375C1693.03 124.562 1690.2 125.656 1686.92 125.656H1593.41C1591.22 125.656 1590.12 126.75 1590.12 128.938V185.539H1677.08C1680.36 185.539 1683.18 186.724 1685.55 189.094C1687.92 191.464 1689.11 194.289 1689.11 197.57C1689.11 200.852 1687.92 203.677 1685.55 206.047C1683.18 208.234 1680.36 209.328 1677.08 209.328H1590.12V266.203C1590.12 268.391 1591.22 269.484 1593.41 269.484H1686.92C1690.2 269.484 1693.03 270.669 1695.4 273.039C1697.77 275.409 1698.95 278.234 1698.95 281.516C1698.95 284.797 1697.77 287.622 1695.4 289.992C1693.03 292.18 1690.2 293.273 1686.92 293.273H1577.27Z" fill="black"/>
</svg>
